<svg width="865.9" height="551.8" xmlns="http://www.w3.org/2000/svg">
  <defs>
    <clipPath clipPathUnits="userSpaceOnUse" id="a">
      <path d="m5176 2046 66 360c19-87 49-228 52-228l39 6 11-7c-49-46-118-96-168-131m127 697 4 22a1557 1557 0 0 1-4-22"/>
    </clipPath>
  </defs>
  <path d="M6402 3501c-300 0-1244 6-1309 6-4 0-5 15-2 18 8 10 19 13 31 13l13-1c11-1 22-4 33-4h2c18 0 35 7 51 16 50 28 92 75 149 84 56 9 116 2 167 31 43 25 74 67 120 88 18 8 38 12 57 12 23 0 46-5 67-14 48-20 83-54 118-91 31-32 70-52 112-52 15 0 32 3 48 9 24 9 46 24 71 30a134 134 0 0 0 71-2c25-8 46-23 64-42 21-23 40-43 70-53 51-17 107-12 156-37 6-2 3-11-3-11h-86M3738 2481c-300 0-1244 6-1308 6-5 0-6 15-3 18 8 11 19 14 31 14l13-1c11-2 22-5 33-5h2c19 0 35 8 52 17 49 27 92 74 148 83s116 2 167 32c43 25 74 66 120 87 18 8 38 12 57 12 23 0 46-5 67-14 48-19 83-54 118-90 31-32 70-52 112-52 16 0 32 3 48 9 24 9 46 23 71 29a134 134 0 0 0 71-2c25-8 46-23 64-42 21-23 40-42 70-53 51-17 107-12 156-36 6-3 3-11-3-11l-86-1M892 2946l-889 5c-3 0-4 10-2 13 6 8 14 10 23 10l10-1c8-1 15-3 23-3h2c13 0 26 5 38 12 35 20 67 54 108 61 41 6 85 1 122 23 31 18 54 48 87 63 14 6 28 9 42 9 17 0 34-3 49-10 35-14 60-39 86-66 23-23 51-38 82-38 11 0 23 2 35 7 18 6 34 17 52 21a97 97 0 0 0 51-1c19-6 35-17 48-31 10-12 20-22 33-30v-44M4607 3947l-955 4c-3 0-4 11-2 14 7 7 15 9 23 9h10l24-4h1c14 0 26 6 38 12 36 20 67 55 108 61 41 7 85 2 122 23 32 19 54 49 88 64 13 6 27 9 42 9 16 0 33-4 49-10 34-15 60-40 85-66 23-24 51-38 82-38 12 0 23 2 35 6 18 7 34 17 52 22a98 98 0 0 0 52-2c19-5 34-16 47-31 15-16 29-30 51-38 37-12 78-9 114-27 4-2 2-8-2-8h-64M4275 3027c-277 0-485 0-486 2-61 0-42 35-36 40 45 40 102 65 160 65h2l85-3 26 1c47 3 86 21 129 42a298 298 0 0 0 176 32c66-9 131-33 198-33l36 2c48 7 92 24 135 44v-192h-425M1885 3617c-277 0-485 0-486 2-61 0-42 35-36 40 45 40 102 65 160 65h2l85-3 25 1c48 3 87 21 130 42a298 298 0 0 0 176 32c66-9 131-33 198-33l36 2c133 19 238 121 372 141a354 354 0 0 0 320-121c25-30 47-62 82-80s75-24 114-28c66-6 133-7 194-37 10-5-17-21-6-21l-1366-2" style="fill:#f6f6f4;fill-opacity:1;fill-rule:nonzero;stroke:none" transform="matrix(.13333 0 0 -.13333 0 552)"/>
  <path d="M1285 634h499v2615h-499Z" style="fill:#d4d6d3;fill-opacity:1;fill-rule:nonzero;stroke:none" transform="matrix(.13333 0 0 -.13333 0 552)"/>
  <path d="M1609 3064h97v100h-97v-100M1485 3064h97v100h-97v-100M1609 2894h97v100h-97v-100M1485 2894h97v100h-97v-100M1609 2725h97v100h-97v-100M1485 2725h97v100h-97v-100M1609 2555h97v100h-97v-100M1485 2555h97v100h-97v-100M1609 2386h97v100h-97v-100M1485 2386h97v100h-97ZM1609 2216h97v100h-97v-100M1485 2216h97v100h-97v-100M1609 2047h97v100h-97v-100M1485 2047h97v100h-97v-100M1609 1877h97v100h-97v-100M1485 1877h97v100h-97v-100M1609 1708h97v100h-97v-100M1485 1708h97v100h-97v-100M1609 1538h97v100h-97v-100M1485 1538h97v100h-97v-100M1609 1369h97v100h-97ZM1485 1369h97v100h-97ZM1609 1199h97v100h-97v-100M1485 1199h97v100h-97v-100M1609 1030h97v99h-97ZM1485 1030h97v99h-97ZM1609 860h97v100h-97ZM1362 860h97v100h-97ZM1362 1030h97v99h-97ZM1459 1299h-97v-100h97v100M1362 1369h97v100h-97ZM1459 1638h-97v-100h97v100M1459 1808h-97v-100h97v100M1459 1977h-97v-100h97v100M1459 2147h-97v-100h97v100M1459 2316h-97v-100h97v100M1362 2386h97v100h-97ZM1362 2555h97v100h-97ZM1459 2825h-97v-100h97v100M1459 2994h-97v-100h97v100M1459 3164h-97v-100h97v100M1485 860h97v100h-97Z" style="fill:#e7e8e5;fill-opacity:1;fill-rule:nonzero;stroke:none" transform="matrix(.13333 0 0 -.13333 0 552)"/>
  <path d="M892 634h393v2615H892Z" style="fill:#999b9b;fill-opacity:1;fill-rule:nonzero;stroke:none" transform="matrix(.13333 0 0 -.13333 0 552)"/>
  <path d="M932 860h80v100h-80ZM1035 860h80v100h-80ZM932 1030h80v99h-80ZM1035 1030h80v99h-80ZM932 1199h80v100h-80ZM1035 1199h80v100h-80ZM1012 1469h-80v-100h80v100M1115 1469h-80v-100h80v100M1012 1638h-80v-100h80v100M1115 1638h-80v-100h80v100M1012 1808h-80v-100h80v100M1115 1808h-80v-100h80v100M1012 1977h-80v-100h80v100M1115 1977h-80v-100h80v100M1012 2147h-80v-100h80v100M1115 2147h-80v-100h80v100M1012 2316h-80v-100h80v100M1115 2316h-80v-100h80v100M1012 2486h-80v-100h80v100M1115 2486h-80v-100h80v100M1012 2655h-80v-100h80v100M1115 2655h-80v-100h80v100M1012 2825h-80v-100h80v100M1115 2825h-80v-100h80v100M1012 2994h-80v-100h80v100M1115 2994h-80v-100h80v100M1012 3164h-80v-100h80v100M1136 3064h80v100h-80v-100M1136 2894h80v100h-80v-100M1136 2725h80v100h-80ZM1136 2555h80v100h-80v-100M1136 2386h80v100h-80v-100M1136 2216h80v100h-80v-100M1136 2047h80v100h-80v-100M1136 1877h80v100h-80v-100M1136 1708h80v100h-80v-100M1136 1538h80v100h-80v-100M1136 1369h80v100h-80v-100M1136 1199h80v100h-80ZM1136 1030h80v99h-80ZM1136 860h80v100h-80ZM1115 3164h-80v-100h80v100" style="fill:#bebfbd;fill-opacity:1;fill-rule:nonzero;stroke:none" transform="matrix(.13333 0 0 -.13333 0 552)"/>
  <path d="M5085 634h601v2818h-601Z" style="fill:#e7e8e5;fill-opacity:1;fill-rule:nonzero;stroke:none" transform="matrix(.13333 0 0 -.13333 0 552)"/>
  <path d="M5085 3508h615v-56h-615v56" style="fill:#bebfbd;fill-opacity:1;fill-rule:nonzero;stroke:none" transform="matrix(.13333 0 0 -.13333 0 552)"/>
  <path d="M5571 634h61v2735h-61ZM5463 634h61v2735h-61ZM5355 634h61v2735h-61ZM5247 634h61v2735h-61ZM5140 634h60v2735h-60Z" style="fill:#fff;fill-opacity:1;fill-rule:nonzero;stroke:none" transform="matrix(.13333 0 0 -.13333 0 552)"/>
  <path d="M5571 3187h61v111h-61v-111M5463 3187h61v111h-61v-111M5355 3187h61v111h-61v-111M5247 3187h61v111h-61v-111M5140 3187h60v111h-60v-111M5571 3007h61v111h-61v-111M5463 3007h61v111h-61v-111M5355 3007h61v111h-61v-111M5247 3007h61v111h-61v-111M5140 3007h60v111h-60v-111M5571 2827h61v111h-61ZM5463 2827h61v111h-61ZM5355 2827h61v111h-61ZM5247 2827h61v111h-61v-111M5140 2827h60v111h-60v-111M5571 2647h61v111h-61ZM5463 2647h61v111h-61ZM5355 2647h61v111h-61ZM5247 2647h61v111h-61ZM5140 2647h60v111h-60ZM5571 2467h61v111h-61ZM5463 2467h61v111h-61ZM5355 2467h61v111h-61ZM5247 2467h61v111h-61ZM5140 2467h60v111h-60ZM5571 2287h61v111h-61ZM5463 2287h61v111h-61ZM5355 2287h61v111h-61ZM5247 2287h61v111h-61ZM5140 2287h60v111h-60v-111M5571 2107h61v111h-61ZM5463 2107h61v111h-61ZM5355 2107h61v111h-61ZM5247 2107h61v111h-61ZM5140 2107h60v111h-60ZM5571 1927h61v111h-61v-111M5463 1927h61v111h-61v-111M5355 1927h61v111h-61v-111M5247 1927h61v111h-61v-111M5140 1927h60v111h-60ZM5571 1747h61v111h-61v-111M5463 1747h61v111h-61v-111M5355 1747h61v111h-61v-111M5247 1747h61v111h-61v-111M5140 1747h60v111h-60v-111M5571 1567h61v111h-61v-111M5463 1567h61v111h-61v-111M5355 1567h61v111h-61v-111M5247 1567h61v111h-61v-111M5140 1567h60v111h-60v-111M5571 1387h61v111h-61v-111M5463 1387h61v111h-61v-111M5355 1387h61v111h-61v-111M5247 1387h61v111h-61v-111M5140 1387h60v111h-60v-111M5571 1207h61v111h-61v-111M5463 1207h61v111h-61v-111M5355 1207h61v111h-61v-111M5247 1207h61v111h-61v-111M5140 1207h60v111h-60v-111M5571 1027h61v111h-61v-111M5463 1027h61v111h-61v-111M5355 1027h61v111h-61ZM5247 1027h61v111h-61ZM5140 1027h60v111h-60ZM5571 634h61v324h-61ZM5463 634h61v324h-61ZM5355 634h61v324h-61ZM5247 634h61v324h-61ZM5140 634h60v324h-60Z" style="fill:#e7e8e5;fill-opacity:1;fill-rule:nonzero;stroke:none" transform="matrix(.13333 0 0 -.13333 0 552)"/>
  <path d="M4700 634h385v2818h-385Z" style="fill:#d4d6d3;fill-opacity:1;fill-rule:nonzero;stroke:none" transform="matrix(.13333 0 0 -.13333 0 552)"/>
  <path d="M4683 3508h402v-56h-402v56M4970 634h61v2735h-61ZM4862 634h61v2735h-61ZM4755 634h60v2735h-60Z" style="fill:#bebfbd;fill-opacity:1;fill-rule:nonzero;stroke:none" transform="matrix(.13333 0 0 -.13333 0 552)"/>
  <path d="M4970 3187h61v111h-61v-111M4862 3187h61v111h-61v-111M4755 3187h60v111h-60v-111M4970 3007h61v111h-61v-111M4862 3007h61v111h-61v-111M4755 3007h60v111h-60v-111M4970 2827h61v111h-61v-111M4862 2827h61v111h-61v-111M4755 2827h60v111h-60v-111M4970 2647h61v111h-61v-111M4862 2647h61v111h-61v-111M4755 2647h60v111h-60v-111M4970 2467h61v111h-61v-111M4862 2467h61v111h-61v-111M4755 2467h60v111h-60v-111M4970 2287h61v111h-61v-111M4862 2287h61v111h-61v-111M4755 2287h60v111h-60v-111M4970 2107h61v111h-61v-111M4862 2107h61v111h-61v-111M4755 2107h60v111h-60v-111M4970 1927h61v111h-61v-111M4862 1927h61v111h-61v-111M4755 1927h60v111h-60v-111M4970 1747h61v111h-61v-111M4862 1747h61v111h-61v-111M4755 1747h60v111h-60v-111M4970 1567h61v111h-61v-111M4862 1567h61v111h-61ZM4755 1567h60v111h-60ZM4970 1387h61v111h-61ZM4862 1387h61v111h-61ZM4755 1387h60v111h-60ZM4970 1207h61v111h-61ZM4862 1207h61v111h-61ZM4755 1207h60v111h-60ZM4970 1027h61v111h-61ZM4862 1027h61v111h-61ZM4755 1027h60v111h-60ZM4970 634h61v324h-61ZM4862 634h61v324h-61ZM4755 634h60v324h-60Z" style="fill:#d4d6d3;fill-opacity:1;fill-rule:nonzero;stroke:none" transform="matrix(.13333 0 0 -.13333 0 552)"/>
  <path d="M5808 634h494v1872h-494z" style="fill:#e7e8e5;fill-opacity:1;fill-rule:nonzero;stroke:none" transform="matrix(.13333 0 0 -.13333 0 552)"/>
  <path d="M5808 2506h423v124h-423v-124" style="fill:#bebfbd;fill-opacity:1;fill-rule:nonzero;stroke:none" transform="matrix(.13333 0 0 -.13333 0 552)"/>
  <path d="M5862 1041h386v1400h-386Z" style="fill:#d4d6d3;fill-opacity:1;fill-rule:nonzero;stroke:none" transform="matrix(.13333 0 0 -.13333 0 552)"/>
  <path d="M5862 2274h386v33h-386v-33M5862 2137h386v33h-386v-33M5862 2000h386v33h-386v-33M5862 1863h386v33h-386v-33M5862 1726h386v33h-386v-33M5862 1589h386v33h-386v-33M5862 1452h386v33h-386v-33M5862 1315h386v33h-386v-33M5862 1178h386v33h-386v-33M5862 1041h386v33h-386v-33" style="fill:#fff;fill-opacity:1;fill-rule:nonzero;stroke:none" transform="matrix(.13333 0 0 -.13333 0 552)"/>
  <path d="M5499 634h309v1872h-309z" style="fill:#d4d6d3;fill-opacity:1;fill-rule:nonzero;stroke:none" transform="matrix(.13333 0 0 -.13333 0 552)"/>
  <path d="M5545 2506h263v124h-263Z" style="fill:#999b9b;fill-opacity:1;fill-rule:nonzero;stroke:none" transform="matrix(.13333 0 0 -.13333 0 552)"/>
  <path d="M5528 1041h237v1400h-237Z" style="fill:#bebfbd;fill-opacity:1;fill-rule:nonzero;stroke:none" transform="matrix(.13333 0 0 -.13333 0 552)"/>
  <path d="M5528 2274h237v33h-237ZM5528 2137h237v33h-237v-33M5528 2000h237v33h-237v-33M5528 1863h237v33h-237v-33M5528 1726h237v33h-237v-33M5528 1589h237v33h-237v-33M5528 1452h237v33h-237v-33M5528 1315h237v33h-237v-33M5528 1178h237v33h-237v-33M5528 1041h237v33h-237Z" style="fill:#fff;fill-opacity:1;fill-rule:nonzero;stroke:none" transform="matrix(.13333 0 0 -.13333 0 552)"/>
  <path d="M863 2163H599v311h264v-311" style="fill:#d4d6d3;fill-opacity:1;fill-rule:nonzero;stroke:none" transform="matrix(.13333 0 0 -.13333 0 552)"/>
  <path d="M432 2151h167v323H432v-323" style="fill:#bebfbd;fill-opacity:1;fill-rule:nonzero;stroke:none" transform="matrix(.13333 0 0 -.13333 0 552)"/>
  <path d="M421 2151h166v185H421v-185" style="fill:#d4d6d3;fill-opacity:1;fill-rule:nonzero;stroke:none" transform="matrix(.13333 0 0 -.13333 0 552)"/>
  <path d="M318 2151h103v185H318v-185" style="fill:#bebfbd;fill-opacity:1;fill-rule:nonzero;stroke:none" transform="matrix(.13333 0 0 -.13333 0 552)"/>
  <path d="M538 634h426v1549H538Z" style="fill:#e7e8e5;fill-opacity:1;fill-rule:nonzero;stroke:none" transform="matrix(.13333 0 0 -.13333 0 552)"/>
  <path d="M781 2061h134v55H781v-55M610 2061h134v55H610v-55M781 1968h134v55H781v-55M610 1968h134v55H610v-55M781 1875h134v55H781v-55M610 1875h134v55H610v-55M781 1782h134v55H781v-55M610 1782h134v55H610v-55M781 1690h134v54H781v-55M610 1690h134v54H610v-55M781 1597h134v54H781v-54M610 1597h134v54H610v-54M781 1504h134v54H781v-54M610 1504h134v54H610v-54M781 1411h134v54H781v-54M610 1411h134v54H610v-54M781 1318h134v54H781v-54M610 1318h134v54H610v-54M781 1225h134v54H781ZM610 1225h134v54H610v-54M781 1132h134v54H781v-54M610 1132h134v54H610v-54M781 1039h134v54H781ZM610 1039h134v54H610v-54M781 946h134v54H781ZM610 946h134v54H610v-54M781 853h134v54H781ZM610 853h134v54H610Z" style="fill:#fff;fill-opacity:1;fill-rule:nonzero;stroke:none" transform="matrix(.13333 0 0 -.13333 0 552)"/>
  <path d="M192 2183h346V634H192v1549" style="fill:#bebfbd;fill-opacity:1;fill-rule:nonzero;stroke:none" transform="matrix(.13333 0 0 -.13333 0 552)"/>
  <path d="M337 907H227v-54h110v54M478 907H368v-54h110v54M337 1000H227v-54h110v54M478 1000H368v-54h110v54M337 1093H227v-54h110v54M478 1093H368v-54h110v54M337 1186H227v-54h110v54M478 1186H368v-54h110v54M337 1279H227v-54h110v54M478 1279H368v-54h110v54M337 1372H227v-54h110v54M478 1372H368v-54h110v54M337 1465H227v-54h110v54M478 1465H368v-54h110v54M337 1558H227v-54h110v54M478 1558H368v-54h110v54M337 1651H227v-54h110v54M478 1651H368v-54h110v54M337 1744H227v-55h110v55M478 1744H368v-55h110v55M337 1837H227v-55h110v55M478 1837H368v-55h110v55M337 1930H227v-55h110v55M478 1930H368v-55h110v55M337 2023H227v-55h110v55M478 2023H368v-55h110v55M337 2116H227v-55h110v55M478 2116H368v-55h110v55" style="fill:#e7e8e5;fill-opacity:1;fill-rule:nonzero;stroke:none" transform="matrix(.13333 0 0 -.13333 0 552)"/>
  <path d="M4295 634h504v1578h-504Z" style="fill:#bebfbd;fill-opacity:1;fill-rule:nonzero;stroke:none" transform="matrix(.13333 0 0 -.13333 0 552)"/>
  <path d="M4631 2030h89v75h-89v-75M4631 1869h89v75h-89v-75M4631 1707h89v76h-89ZM4631 1546h89v76h-89ZM4631 1385h89v75h-89ZM4631 1224h89v75h-89ZM4631 1062h89v76h-89ZM4502 2030h90v75h-90v-75M4502 1869h90v75h-90ZM4502 1707h90v76h-90ZM4502 1546h90v76h-90ZM4502 1385h90v75h-90ZM4502 1224h90v75h-90v-75M4502 1062h90v76h-90ZM4375 2030h89v75h-89v-75M4375 1869h89v75h-89ZM4375 1707h89v76h-89ZM4375 1546h89v76h-89v-76M4375 1385h89v75h-89ZM4375 1224h89v75h-89v-75M4375 1062h89v76h-89v-76M4295 2340h336v-128h-336v128" style="fill:#d4d6d3;fill-opacity:1;fill-rule:nonzero;stroke:none" transform="matrix(.13333 0 0 -.13333 0 552)"/>
  <path d="M4295 2420h213v-80h-213v80" style="fill:#e7e8e5;fill-opacity:1;fill-rule:nonzero;stroke:none" transform="matrix(.13333 0 0 -.13333 0 552)"/>
  <path d="M3942 634h353v1578h-353Z" style="fill:#999b9b;fill-opacity:1;fill-rule:nonzero;stroke:none" transform="matrix(.13333 0 0 -.13333 0 552)"/>
  <path d="M4051 1150h-73v-76h73v76M4051 1311h-73v-75h73v75M3978 1397h73v75h-73ZM4051 1634h-73v-76h73v76M3978 1719h73v76h-73ZM3978 1881h73v75h-73ZM4051 2117h-73v-75h73v75M4155 1150h-72v-76h72v76M4155 1311h-72v-75h72v75M4083 1397h72v75h-72ZM4083 1558h72v76h-72ZM4083 1719h72v76h-72ZM4155 1956h-72v-75h72v75M4083 2042h72v75h-72ZM4259 1150h-72v-76h72v76M4259 1311h-72v-75h72v75M4187 1397h72v75h-72ZM4187 1558h72v76h-72ZM4259 1795h-72v-76h72v76M4187 1881h72v75h-72ZM4187 2042h72v75h-72ZM3996 2212h299v128h-299v-128" style="fill:#bebfbd;fill-opacity:1;fill-rule:nonzero;stroke:none" transform="matrix(.13333 0 0 -.13333 0 552)"/>
  <path d="M4133 2340h162v80h-162v-80M6413 634c-2028-7-4304-7-6332 0 2028 6 4304 6 6332 0M5096 3804v-1l138-148 134 152a182 182 0 1 1-272-3" style="fill:#d4d6d3;fill-opacity:1;fill-rule:nonzero;stroke:none" transform="matrix(.13333 0 0 -.13333 0 552)"/>
  <path d="M5161 3953a75 75 0 1 1 138-55 75 75 0 0 1-138 55" style="fill:#fff;fill-opacity:1;fill-rule:nonzero;stroke:none" transform="matrix(.13333 0 0 -.13333 0 552)"/>
  <path d="M1170 3500v-1l138-148 134 153a182 182 0 0 1-60 282 181 181 0 0 1-212-286" style="fill:#d4d6d3;fill-opacity:1;fill-rule:nonzero;stroke:none" transform="matrix(.13333 0 0 -.13333 0 552)"/>
  <path d="M1235 3649a75 75 0 1 1 139-55 75 75 0 0 1-139 55" style="fill:#fff;fill-opacity:1;fill-rule:nonzero;stroke:none" transform="matrix(.13333 0 0 -.13333 0 552)"/>
  <path d="m5233 3660-25-7 3-9 18 5 6 1-2 10M5162 3638l-46-17 3-9 46 17zm-92-36-44-20 4-9 44 20zm-88-42-43-23 5-9 42 23zm-86-48-41-27 6-8 41 26zm-81-54-40-30 6-8 39 29zm-78-60-37-32 7-8 36 32zm-73-66-34-35 7-7 34 35zm-67-71-32-38 8-6 31 37zm-62-76-28-40 8-6 28 40zm-55-81-25-43 9-4 24 41zm-48-86-22-44 9-4 21 44zm-41-89-18-45 9-4 18 45zm-34-92-14-47 9-2 14 46zm-27-94-10-48 9-2 11 48zm-19-96-8-48 10-2 8 48-10 2M4298 2550l-3-25 5-1 4 4-17 18-7-7a846 846 0 0 0 17-18l7-9 1 12 3 25-10 1M4252 2583l-36 35-7-7 36-35zm-74 70-38 34-6-8 38-34zm-76 67-39 32-7-8 39-32zm-79 63-41 31-6-8 41-31zm-81 61-42 29-6-8 42-29zm-84 58-42 28-6-9 43-27zm-85 55-43 27-5-9 43-26zm-87 52-44 25-5-8 44-25zm-89 50-45 23-4-9 45-23zm-90 46-46 22-4-9 46-22zm-92 43-46 21-4-9 46-21zm-93 41-47 19-3-9 47-19zm-94 37-47 18-4-9 48-18zm-95 35-48 16-3-10 48-16zm-97 31-48 15-3-10 48-15zm-97 28-49 13-3-9 49-13zm-98 25-50 12-2-10 49-11zm-99 22-50 10-2-10 50-9zm-100 19-50 8-2-9 50-9zm-100 16-50 7-2-10 50-7zm-101 12-50 6-1-10 50-5zm-101 10-50 4-1-10 51-4zm-101 7-51 2v-10l51-2zm-101 3-51 1v-10l51-1zm-102 1-50-1v-10l51 1zm-101-3-50-2v-10l50 2zm-101-5-51-4 1-9 51 3zm-101-8-51-5 2-10 50 5zm-101-10-50-7 1-10 50 7zm-100-14-50-7 1-10 50 7zm-100-16-50-8 1-10 50 9-1 9M1332 3361l-25-5 2-10 25 5-2 10" style="fill:#e7e8e5;fill-opacity:1;fill-rule:nonzero;stroke:none" transform="matrix(.13333 0 0 -.13333 0 552)"/>
  <path d="M4115 2723h1l184-199 180 204a243 243 0 1 1-365-5" style="fill:#d4d6d3;fill-opacity:1;fill-rule:nonzero;stroke:none" transform="matrix(.13333 0 0 -.13333 0 552)"/>
  <path d="M4202 2924a100 100 0 1 1 186-74 100 100 0 0 1-186 74" style="fill:#fff;fill-opacity:1;fill-rule:nonzero;stroke:none" transform="matrix(.13333 0 0 -.13333 0 552)"/>
  <path d="M81 5c2028 6 4304 6 6332 0C4385-2 2109-2 81 5" style="fill:#17282f;fill-opacity:1;fill-rule:nonzero;stroke:none" transform="matrix(.13333 0 0 -.13333 0 552)"/>
  <path d="M1902 10c-21-7-611-13-634 1-9 5-1 553-1 553l383 6-20-359s227-98 250-116c24-18 42-77 22-85" style="fill:#f68c95;fill-opacity:1;fill-rule:nonzero;stroke:none" transform="matrix(.13333 0 0 -.13333 0 552)"/>
  <path d="M1268 11c23-14 613-8 634-1 20 8 1 67-22 85-13 10-90 46-156 75 44-21 136-95-134-61-183 22-281 45-331 57-8-85 2-151 9-155" style="fill:#17282f;fill-opacity:1;fill-rule:nonzero;stroke:none" transform="matrix(.13333 0 0 -.13333 0 552)"/>
  <path d="m1692 344-515 4s27 899 25 912c-4 23-266 1101-266 1101l374-10 120-408c81-274 174-595 185-646 26-127 77-953 77-953" style="fill:#273e47;fill-opacity:1;fill-rule:nonzero;stroke:none" transform="matrix(.13333 0 0 -.13333 0 552)"/>
  <path d="M1202 1261c-8 38-266 1100-266 1100l280-8-14-1092M1229 448a4882 4882 0 0 0 415-6 7523 7523 0 0 0-415 6" style="fill:#17282f;fill-opacity:1;fill-rule:nonzero;stroke:none" transform="matrix(.13333 0 0 -.13333 0 552)"/>
  <path d="M524 54C504 61 41 428 32 453c-4 9 46 80 108 163l2 3c13 17 248 291 248 291l296-233-242-291-5-5s115-220 122-248c6-29-16-87-37-79" style="fill:#f68c95;fill-opacity:1;fill-rule:nonzero;stroke:none" transform="matrix(.13333 0 0 -.13333 0 552)"/>
  <path d="M109 575c-47-65-80-114-77-122 9-26 472-392 492-399 21-8 43 50 37 79-4 17-49 106-82 172 21-47 38-142-148 39a3630 3630 0 0 0-222 231" style="fill:#17282f;fill-opacity:1;fill-rule:nonzero;stroke:none" transform="matrix(.13333 0 0 -.13333 0 552)"/>
  <path d="M1291 2351s-18-304-77-365c0 0-111-608-136-777-26-171-495-834-495-834L171 705s516 545 518 556c14 90 92 701 87 717-48 159 44 386 44 386l471-13" style="fill:#273e47;fill-opacity:1;fill-rule:nonzero;stroke:none" transform="matrix(.13333 0 0 -.13333 0 552)"/>
  <path d="M1306 2035a1004 1004 0 0 0-200-79c34 9 68 14 101 25l-7-34-8-43-15-87-28-174a2150 2150 0 0 1-12-98c13 58 22 115 33 173l30 174 8 49c2 14 5 28 5 42h1c34 12 65 28 93 50 1 1 0 3-1 2M1254 2298h-3c4-48 4-90 3-135-1-21-10-137-46-131-7 1-10 7-12 16-1 11 2 24 3 35 2 25 4 49 4 73a658 658 0 0 1-12 135c4-62 6-125 1-187-2-31-14-76 17-79 32-2 48 74 50 95 7 58 3 120-5 178" style="fill:#17282f;fill-opacity:1;fill-rule:nonzero;stroke:none" transform="matrix(.13333 0 0 -.13333 0 552)"/>
  <path d="m1209 2029-7-24c-1-6-3-13-2-20h3c4 5 5 13 7 19l6 23c2 5-6 7-7 2M298 762a4883 4883 0 0 0 318-269 7517 7517 0 0 0-318 269M1384 3153s38-20 45-48c11-48-10-120-10-120l-35 168" style="fill:#17282f;fill-opacity:1;fill-rule:nonzero;stroke:none" transform="matrix(.13333 0 0 -.13333 0 552)"/>
  <path d="M1349 3137c-61-73-16-136-43-159-69-60-22-83-41-106-15-18-74-32-54-99l270-3c8 44-36 68-38 99-3 32 35 62-23 130-38 44-42 172-71 138" style="fill:#17282f;fill-opacity:1;fill-rule:nonzero;stroke:none" transform="matrix(.13333 0 0 -.13333 0 552)"/>
  <path d="M1197 2739c74-176 169-367 266-402 92-33 314 144 366 247 13 27-154 171-181 153-51-33-147-143-161-139-15 5-131 128-236 232-64 63-105 31-54-91" style="fill:#f68c95;fill-opacity:1;fill-rule:nonzero;stroke:none" transform="matrix(.13333 0 0 -.13333 0 552)"/>
  <path d="m1735 3039-153-238c-6-7-4-15 4-17l134-45c8-3 18 0 23 7l154 239c5 6 4 14-4 16l-134 46c-8 2-18-1-24-8" style="fill:#273e47;fill-opacity:1;fill-rule:nonzero;stroke:none" transform="matrix(.13333 0 0 -.13333 0 552)"/>
  <path d="m1751 3034-153-239c-6-6-4-14 4-16l134-46c8-2 18 1 24 8l153 238c5 7 4 14-4 17l-134 45c-8 3-18 0-24-7" style="fill:#33535f;fill-opacity:1;fill-rule:nonzero;stroke:none" transform="matrix(.13333 0 0 -.13333 0 552)"/>
  <path d="M1784 3009a12 12 0 1 0-22 9 12 12 0 0 0 22-9" style="fill:#17282f;fill-opacity:1;fill-rule:nonzero;stroke:none" transform="matrix(.13333 0 0 -.13333 0 552)"/>
  <path d="M1876 2729c7 72-3 92 35 150 24 38 11 70-31 47-67-38-95-130-95-164l91-33" style="fill:#f68c95;fill-opacity:1;fill-rule:nonzero;stroke:none" transform="matrix(.13333 0 0 -.13333 0 552)"/>
  <path d="M1796 2535s62 82 76 159c10 53 19 170-102 275-29 25-88 41-56-17 23-41 50-60 59-87 0 0-77 11-101-19-11-13-39-50-57-82l14-12s-21-28-13-82l180-135" style="fill:#f68c95;fill-opacity:1;fill-rule:nonzero;stroke:none" transform="matrix(.13333 0 0 -.13333 0 552)"/>
  <path d="M1873 2746c-14 24-45 75-85 108-45 36-140 94-166 61-20-24 15-50 15-50s-45 16-58-10c-11-23 16-41 16-41s-28 5-35-20c-8-30 53-35 71-73 4-8 242 25 242 25" style="fill:#f68c95;fill-opacity:1;fill-rule:nonzero;stroke:none" transform="matrix(.13333 0 0 -.13333 0 552)"/>
  <path d="M1757 2800c-17 21-68 58-119 66a564 564 0 0 0 119-66M1719 2757a257 257 0 0 1-124 57c58-20 104-45 124-58v1" style="fill:#17282f;fill-opacity:1;fill-rule:nonzero;stroke:none" transform="matrix(.13333 0 0 -.13333 0 552)"/>
  <path d="m1602 2711 169-212s-215-203-305-172-242 295-284 458c-29 113 30 90 89 31 60-60 215-207 222-206 8 2 109 101 109 101" style="fill:#fabb1e;fill-opacity:1;fill-rule:nonzero;stroke:none" transform="matrix(.13333 0 0 -.13333 0 552)"/>
  <path d="M1415 2448c-4-9-7-19-8-30 6 8 11 18 15 27 4 10 7 20 8 30-7-8-11-17-15-27m267 48c-4-9-7-19-8-30l15 27c4 10 7 20 8 30-7-8-11-17-15-27m-406 205c-4-10-7-20-8-31 7 9 11 18 15 27 4 10 7 20 8 31-7-9-11-18-15-27m287-143c-9 4-19 7-30 8a112 112 0 0 1 57-23c-8 6-17 11-27 15m71 113-6-5 9 2-3 3m-250-62-27-15a112 112 0 0 1 57 24l-30-9m163-209c-10-4-19-9-27-15a113 113 0 0 1 57 24c-11-2-21-5-30-9" style="fill:#fff;fill-opacity:1;fill-rule:nonzero;stroke:none" transform="matrix(.13333 0 0 -.13333 0 552)"/>
  <path d="M1487 2324h-2 2a153 153 0 0 0 0 0m-18 2" style="fill:#bbbdbb;fill-opacity:1;fill-rule:nonzero;stroke:none" transform="matrix(.13333 0 0 -.13333 0 552)"/>
  <path d="M1233 2848" style="fill:#888b8b;fill-opacity:1;fill-rule:nonzero;stroke:none" transform="matrix(.13333 0 0 -.13333 0 552)"/>
  <path d="m1236 2846-3 2 3-2" style="fill:#142228;fill-opacity:1;fill-rule:nonzero;stroke:none" transform="matrix(.13333 0 0 -.13333 0 552)"/>
  <path d="M1487 2324h-2a65 65 0 0 0-22 5c-91 36-240 295-281 456-15 58-7 80 13 80l12-2a108 108 0 0 0 29-17l146-238c-9-4-17-8-25-14 11 1 20 4 29 7 58-97 116-193 156-264-20-8-39-13-55-13m-57 151c-7-8-11-17-15-27-4-9-7-19-8-30 6 8 11 18 15 27 4 10 7 20 8 30m-139 253c-7-9-11-18-15-27-4-10-7-20-8-31 7 9 11 18 15 27 4 10 7 20 8 31" style="fill:#f4ac12;fill-opacity:1;fill-rule:nonzero;stroke:none" transform="matrix(.13333 0 0 -.13333 0 552)"/>
  <path d="M1407 2418a112 112 0 0 0 23 57c-1-10-4-20-8-30-4-9-9-19-15-27m-50 176c8 6 16 10 25 14l4-7c-9-3-18-6-29-7m-89 76c1 11 4 21 8 31 4 9 8 18 15 27-1-11-4-21-8-31-4-9-8-18-15-27" style="fill:#e0e1de;fill-opacity:1;fill-rule:nonzero;stroke:none" transform="matrix(.13333 0 0 -.13333 0 552)"/>
  <path d="M1708 2471a4713 4713 0 0 0-138 183c75-86 116-152 139-182l-1-1" style="fill:#17282f;fill-opacity:1;fill-rule:nonzero;stroke:none" transform="matrix(.13333 0 0 -.13333 0 552)"/>
  <path d="m1334 2443 14-151-89 7-14 55-33-52-430 44 69 116c54 114 124 285 213 365 70 64 145 52 189-1 11-13 117-202 126-276 6-53-45-107-45-107" style="fill:#fabb1e;fill-opacity:1;fill-rule:nonzero;stroke:none" transform="matrix(.13333 0 0 -.13333 0 552)"/>
  <path d="m1334 2443 14-151-89 7-14 55-33-52-430 44 69 116c54 114 124 285 213 365 70 64 145 52 189-1 11-13 117-202 126-276 6-53-45-107-45-107" style="fill:#fabb1e;fill-opacity:1;fill-rule:nonzero;stroke:none" transform="matrix(.13333 0 0 -.13333 0 552)"/>
  <path d="M980 2607c-3-10-7-20-8-30a111 111 0 0 1 23 57c-6-8-11-18-15-27zm296 94c-4-10-7-20-8-31 7 9 11 18 15 27 4 10 7 20 8 31-7-9-11-18-15-27zm-136 78c-9 3-19 7-30 7l27-15c10-4 20-7 30-8-8 7-17 12-27 16zm127-289c-9 4-19 7-30 8l27-15c10-4 20-7 31-8-9 7-18 11-28 15zm-371-26c-10 4-20 7-30 8a112 112 0 0 1 57-23l-27 15zm115 290-3 8-6-7 2-4c4-10 9-19 16-27-1 11-5 20-9 30zm94-301c-4 9-8 19-15 27 1-11 4-21 8-30s9-19 16-27c-1 11-5 21-9 30zm-305-104v-5l4-1-4 6zm458-12a179 179 0 0 1-27-16l21 5 9 3c10 4 19 9 27 16-11-1-20-4-30-8zm-284-11 14-2 11 8c-9 0-17-3-25-6zm161 295c-9-4-19-9-27-16 11 2 21 5 30 9 10 4 19 8 27 15-11-1-20-4-30-8zm231-22-9-5 10 1-1 4" style="fill:#fff;fill-opacity:1;fill-rule:nonzero;stroke:none" transform="matrix(.13333 0 0 -.13333 0 552)"/>
  <path d="M1174 2487a417 417 0 0 0 124-34c6-2 13-4 19-4v-1h-18l-17 4-36 12-72 21v2M1114 2461a440 440 0 0 0 105-1l15-3v-1h-15l-15 1h-30a1444 1444 0 0 1-60 4" style="fill:#17282f;fill-opacity:1;fill-rule:nonzero;stroke:none" transform="matrix(.13333 0 0 -.13333 0 552)"/>
  <path d="M1120 2863c10-45 41-134 66-178 34-59 73-112 73-112s16 52 19 81c4 43-1 89-15 156l-10 16c-32 39-81 56-133 37" style="fill:#f68c95;fill-opacity:1;fill-rule:nonzero;stroke:none" transform="matrix(.13333 0 0 -.13333 0 552)"/>
  <path d="M1259 2573c9-37 13-86-4-118l-10-101 6 102c17 36 13 78 8 117M1228 2535c1 15 23 15 23 0-1-16-23-14-23 0zm0 0c0-12 18-12 18 0 0 11-17 12-18 0M1219 2457c1 15 23 15 23 0-1-16-23-15-23 0zm0 0c0-12 18-12 18 0 0 11-17 12-18 0M1210 2379c1 15 23 15 23 0-1-16-23-15-23 0zm0 0c1-12 18-12 18 0 1 11-17 12-18 0" style="fill:#17282f;fill-opacity:1;fill-rule:nonzero;stroke:none" transform="matrix(.13333 0 0 -.13333 0 552)"/>
  <path d="M1034 2752c-134-184-250-464-200-525 56-67 241 182 238 195-2 10 14 147 48 303 33 155-53 72-86 27" style="fill:#f68c95;fill-opacity:1;fill-rule:nonzero;stroke:none" transform="matrix(.13333 0 0 -.13333 0 552)"/>
  <path d="M1066 2385c3 23 52 264 67 353 16 89-25 111-100 20-74-91-193-289-212-432-19-138 50-140 132-64 68 62 113 123 113 123" style="fill:#fabb1e;fill-opacity:1;fill-rule:nonzero;stroke:none" transform="matrix(.13333 0 0 -.13333 0 552)"/>
  <path d="m1066 2385 15 85 16 85 17 84 9 42 9 42-7-42-8-43-16-84-17-84-18-85M1121 2657a153 153 0 0 0 12 32l6 10-7-22-11-20" style="fill:#17282f;fill-opacity:1;fill-rule:nonzero;stroke:none" transform="matrix(.13333 0 0 -.13333 0 552)"/>
  <path d="M1108 2605v1zm-139-281-27-15a110 110 0 0 1 57 24c-11-2-20-5-30-9zm-150-13-1-12 6-7-5 19zm198 426-4-5 7-8-3 13zm-121-273c-10 4-20 7-30 8a112 112 0 0 1 57-23l-27 15zm240 316c-8 3-17 6-26 6 8-6 17-11 27-15l-1 9zm-156-173c-3-10-7-20-8-30a111 111 0 0 1 23 57c-6-8-11-18-15-27" style="fill:#fff;fill-opacity:1;fill-rule:nonzero;stroke:none" transform="matrix(.13333 0 0 -.13333 0 552)"/>
  <path d="M848 2219c61-29 148 7 401 93 35 12 22 289-16 278-48-14-230-77-243-83-108-53-183-269-142-288" style="fill:#f68c95;fill-opacity:1;fill-rule:nonzero;stroke:none" transform="matrix(.13333 0 0 -.13333 0 552)"/>
  <path d="M1153 2550s85 55 142 88c31 19 89 46 118 49 45 4 233-5 231-51-1-41-161-12-161-12s164-15 154-64c-11-50-188 7-188 7s169-19 150-68c-14-38-178 4-178 4s145-17 132-56c-14-43-168-13-168-13a232 232 0 0 0-158-130c-11-3-74 246-74 246" style="fill:#f68c95;fill-opacity:1;fill-rule:nonzero;stroke:none" transform="matrix(.13333 0 0 -.13333 0 552)"/>
  <path d="m1426 2632 58-4c20-3 39-6 58-11 46-11 73-25 72-24-43 16-111 27-131 29l-57 10M1415 2563l74-7 72-14c1 0 1-1-1-1l-72 10c-24 4-49 9-73 11v1M1395 2505a555 555 0 0 0 111-21c-37 8-67 14-111 20v1" style="fill:#17282f;fill-opacity:1;fill-rule:nonzero;stroke:none" transform="matrix(.13333 0 0 -.13333 0 552)"/>
  <path d="m1202 2586-72-336s-225-67-285-33c-39 23 32 245 155 295l202 74" style="fill:#fabb1e;fill-opacity:1;fill-rule:nonzero;stroke:none" transform="matrix(.13333 0 0 -.13333 0 552)"/>
  <path d="m969 2324-27-15a110 110 0 0 1 57 24c-11-2-20-5-30-9zm136 129c-4 9-8 19-15 27 1-11 4-21 8-30s9-19 16-27c-1 11-5 21-9 30zm-185-3-1-1 4-1-3 2zm-24-239c-10 4-20 7-30 8l17-11 21-1-8 4zm214 34v-1l9 3c3 8 5 16 6 25-7-9-11-18-15-27" style="fill:#fff;fill-opacity:1;fill-rule:nonzero;stroke:none" transform="matrix(.13333 0 0 -.13333 0 552)"/>
  <path d="M885 2398c10 24 44 85 115 114l1-1c-51-27-103-92-115-114l-1 1M1055 2256l21 111 25 111 16 62h1l-21-111a5681 5681 0 0 0-41-173c0-2-2-1-1 0" style="fill:#17282f;fill-opacity:1;fill-rule:nonzero;stroke:none" transform="matrix(.13333 0 0 -.13333 0 552)"/>
  <path d="M1201 2589a1685 1685 0 0 1-84-28c-27-11-87-30-133-56l4-1c22 14 198 73 211 79v-3h2l2 6c1 1 0 3-2 3M977 2703c-59-117-121-234-153-362 22 130 85 250 153 362" style="fill:#17282f;fill-opacity:1;fill-rule:nonzero;stroke:none" transform="matrix(.13333 0 0 -.13333 0 552)"/>
  <path d="M1154 2855c0-9 24-82 67-93 14-4 36 70 36 70l3 5 42 72-72 86-11 12-22-46-2-4-2-4-6-11-4-9-4-9c-13-32-24-65-25-69" style="fill:#f68c95;fill-opacity:1;fill-rule:nonzero;stroke:none" transform="matrix(.13333 0 0 -.13333 0 552)"/>
  <path d="M1197 2961c3-68 44-108 63-124l42 72-72 86-11 12-22-46" style="fill:#17282f;fill-opacity:1;fill-rule:nonzero;stroke:none" transform="matrix(.13333 0 0 -.13333 0 552)"/>
  <path d="M1420 3052c23-143-60-172-91-177-28-5-123-16-161 124-37 139 22 195 86 209 63 13 144-13 166-156" style="fill:#f68c95;fill-opacity:1;fill-rule:nonzero;stroke:none" transform="matrix(.13333 0 0 -.13333 0 552)"/>
  <path d="m1394 3057-10 1c-4 0-7 0-10 2-2 1-2 5-1 6 3 4 8 5 12 5 5 0 9-2 13-5 3-3 1-9-4-9M1298 3054l9 3c4 1 7 2 9 5 1 2 1 5-1 7-4 3-8 2-13 1-5-2-8-4-10-9-3-4 1-9 6-7M1323 3029l-1-1c2-9 3-21-5-26 10 3 9 18 6 27" style="fill:#17282f;fill-opacity:1;fill-rule:nonzero;stroke:none" transform="matrix(.13333 0 0 -.13333 0 552)"/>
  <path d="M1312 3038c-15-2-11-33 3-32 15 2 11 33-3 32" style="fill:#17282f;fill-opacity:1;fill-rule:nonzero;stroke:none" transform="matrix(.13333 0 0 -.13333 0 552)"/>
  <path d="M1307 3035c-3-2-5-5-9-6-3-1-7 2-10 5v-1c1-6 4-12 10-12s10 6 11 13c0 1-1 2-2 1M1377 3038l1-1c0-10 3-21 12-23v-1c-11 1-14 15-13 25" style="fill:#17282f;fill-opacity:1;fill-rule:nonzero;stroke:none" transform="matrix(.13333 0 0 -.13333 0 552)"/>
  <path d="M1384 3049c16 3 21-28 6-31-14-3-19 28-6 31" style="fill:#17282f;fill-opacity:1;fill-rule:nonzero;stroke:none" transform="matrix(.13333 0 0 -.13333 0 552)"/>
  <path d="M1391 3048c3-1 6-4 9-4 3 1 5 5 7 8 2-6 1-13-5-15-5-2-10 3-12 9-1 1 0 3 1 2M1324 2949c2-3 4-6 8-7l10 2h1c-3-4-9-6-13-5-5 1-7 5-7 9l1 1M1364 2985l3-22-4-1h-1c-12-2-24 2-32 12l1 1c9-7 20-9 30-9 1 2-4 25-3 26l16-4c-4 31-12 61-16 91l2 1c11-31 16-66 21-98 0-4-14 1-17 3" style="fill:#17282f;fill-opacity:1;fill-rule:nonzero;stroke:none" transform="matrix(.13333 0 0 -.13333 0 552)"/>
  <path d="M1362 2964s-6-9-15-13c-4-2-7-2-11-2-8 2-9 9-8 15l3 10s12-10 31-10" style="fill:#17282f;fill-opacity:1;fill-rule:nonzero;stroke:none" transform="matrix(.13333 0 0 -.13333 0 552)"/>
  <path d="M1347 2951c-4-2-7-2-11-2-8 2-9 9-8 15 9 0 17-5 19-13" style="fill:#f578ba;fill-opacity:1;fill-rule:nonzero;stroke:none" transform="matrix(.13333 0 0 -.13333 0 552)"/>
  <path d="M1289 3215c-69 6-128-8-156-42-60-71-28-193-54-216-68-60-22-82-40-104-15-18-73-32-53-97l264-4c8 44-35 67-37 98s34 61-23 127c-37 43 99 238 99 238" style="fill:#17282f;fill-opacity:1;fill-rule:nonzero;stroke:none" transform="matrix(.13333 0 0 -.13333 0 552)"/>
  <path d="M1153 3012c17-2 56-5 81 14 14 11 26 30 34 64 14 59 56 97 119 61 0 0 15 54-22 77s-76-13-76-13-82 11-128-50c-46-62-8-153-8-153" style="fill:#17282f;fill-opacity:1;fill-rule:nonzero;stroke:none" transform="matrix(.13333 0 0 -.13333 0 552)"/>
  <path d="M1207 3005s-34 43-54 30c-20-12 9-76 33-83 25-7 32 15 32 15l-11 38" style="fill:#f68c95;fill-opacity:1;fill-rule:nonzero;stroke:none" transform="matrix(.13333 0 0 -.13333 0 552)"/>
  <path d="M1161 3017c18-6 28-21 35-37-5 6-12 9-20 3v-1c7 2 12 1 17-4 4-4 6-9 9-13 1-2 3-1 3 1-2 22-20 51-44 51" style="fill:#17282f;fill-opacity:1;fill-rule:nonzero;stroke:none" transform="matrix(.13333 0 0 -.13333 0 552)"/>
  <path d="m673 372 1235-8s-66 763-660 712-575-704-575-704" style="fill:#fabb1e;fill-opacity:1;fill-rule:nonzero;stroke:none" transform="matrix(.13333 0 0 -.13333 0 552)"/>
  <path d="m1811 364-121 1-512 3-443 3c1 144-2 623 521 654l42 2c223 0 348-112 419-248a799 799 0 0 0 47-114c26-81 37-163 43-228 2-28 4-52 4-73" style="fill:#7a5717;fill-opacity:1;fill-rule:nonzero;stroke:none" transform="matrix(.13333 0 0 -.13333 0 552)"/>
  <path d="m4369 373 1231 93s-128 755-716 655c-588-99-515-748-515-748" style="fill:#fabb1e;fill-opacity:1;fill-rule:nonzero;stroke:none" transform="matrix(.13333 0 0 -.13333 0 552)"/>
  <path d="M4445 378a2657 2657 0 0 0 4 120h-1c17 207 100 537 512 542l9 1c120 0 212-29 284-74l1-69a488 488 0 0 1-278 87 490 490 0 0 1-477-603l-54-4" style="fill:#7a5717;fill-opacity:1;fill-rule:nonzero;stroke:none" transform="matrix(.13333 0 0 -.13333 0 552)"/>
  <path d="m2953 2200 162 7c-71-1-128-3-162-7" style="fill:#fabb1e;fill-opacity:1;fill-rule:nonzero;stroke:none" transform="matrix(.13333 0 0 -.13333 0 552)"/>
  <path d="M159 703c3-4 8-130 6-134-2-5-17-9-18-20-2-11-5-46 3-58 0 0 124-114 163-125 39-10 397-42 418-35s-88 658 525 694c313 19 449-170 508-360 57-181 44-361 52-361 15 0 2616 20 2628 30 11 11-79 699 516 706 569 8 537-622 559-623 23-1 502 52 539 62 36 9 90 116 94 125 3 9-8 33-8 33s56 180 59 252-132 271-132 271-70 302-111 339c-49 44-648 181-648 181s-501 359-577 416c11 12-292 80-369 84-61 3-863 33-1248 27h-3l-162-7c-64-4-124-7-136-9-27-4-183-70-183-70l100-21-253-133c-47-26-670-394-689-402-18-7-191 9-192 10-2 1 26 12 26 15 0 4-46-7-56-7s-659-130-781-173c-122-44-391-214-473-293S159 918 145 910s-47-10-52-62c-6-53 1-106 13-118 11-11 49-22 53-27" style="fill:#fabb1e;fill-opacity:1;fill-rule:nonzero;stroke:none" transform="matrix(.13333 0 0 -.13333 0 552)"/>
  <path d="M1754 695a669 669 0 0 0 0 0" style="fill:#9f8849;fill-opacity:1;fill-rule:nonzero;stroke:none" transform="matrix(.13333 0 0 -.13333 0 552)"/>
  <path d="M1754 695c-10 28-22 57-37 84l288 4 3-80-254-8m261 8-1 80c488 7 1374 17 1868 18v-31c-494-22-1378-51-1867-67m1875 67 1 31c211 0 349-2 350-8 1-5-138-13-351-23" style="fill:#fcce4e;fill-opacity:1;fill-rule:nonzero;stroke:none" transform="matrix(.13333 0 0 -.13333 0 552)"/>
  <path d="M1752 425a490 490 0 1 0-970 141 490 490 0 0 0 970-141" style="fill:#17282f;fill-opacity:1;fill-rule:nonzero;stroke:none" transform="matrix(.13333 0 0 -.13333 0 552)"/>
  <path d="M1621 444a358 358 0 1 0-708 103 358 358 0 0 0 708-103" style="fill:#d4d6d3;fill-opacity:1;fill-rule:nonzero;stroke:none" transform="matrix(.13333 0 0 -.13333 0 552)"/>
  <path d="M1593 448a330 330 0 1 0-652 95 330 330 0 0 0 652-95" style="fill:#999b9b;fill-opacity:1;fill-rule:nonzero;stroke:none" transform="matrix(.13333 0 0 -.13333 0 552)"/>
  <path d="m1330 570-102 15c42 45-54 237-54 237l57 10c27-67 42-87 72-92 29-4 50 12 95 68l51-26s-146-157-119-212M1218 580l-46-93c-29 54-241 23-241 23l7 57c72 5 97 13 110 40 13 26 5 51-35 111l40 40s104-187 165-178M1174 477l74-73c-60-11-96-223-96-223l-51 25c17 70 17 96-5 117-21 21-47 20-116 1l-26 51s210 41 220 102M1259 403l92 48c-8-61 182-160 182-160l-40-42c-61 38-85 46-112 32-26-14-34-38-37-110l-57-9s26 212-28 241M1355 461l-17 102c56-26 209 124 209 124l27-51c-55-46-70-67-65-97 5-29 26-44 93-69l-8-57s-195 91-239 48" style="fill:#d4d6d3;fill-opacity:1;fill-rule:nonzero;stroke:none" transform="matrix(.13333 0 0 -.13333 0 552)"/>
  <path d="M1362 484a96 96 0 1 0-189 28 96 96 0 0 0 189-28" style="fill:#d4d6d3;fill-opacity:1;fill-rule:nonzero;stroke:none" transform="matrix(.13333 0 0 -.13333 0 552)"/>
  <path d="M5461 424a490 490 0 1 0-969 141 490 490 0 0 0 969-141" style="fill:#17282f;fill-opacity:1;fill-rule:nonzero;stroke:none" transform="matrix(.13333 0 0 -.13333 0 552)"/>
  <path d="M5331 443a358 358 0 1 0-708 103 358 358 0 0 0 708-103" style="fill:#d4d6d3;fill-opacity:1;fill-rule:nonzero;stroke:none" transform="matrix(.13333 0 0 -.13333 0 552)"/>
  <path d="M5303 447a330 330 0 1 0-653 95 330 330 0 0 0 653-95" style="fill:#999b9b;fill-opacity:1;fill-rule:nonzero;stroke:none" transform="matrix(.13333 0 0 -.13333 0 552)"/>
  <path d="m5040 569-103 15c42 45-53 237-53 237l56 10c27-67 43-87 72-92 30-4 50 11 95 68l51-26s-146-157-118-212M4928 579l-46-93c-30 54-242 23-242 23l8 56c72 5 96 14 109 40 13 27 5 51-35 112l41 40s104-187 165-178M4884 475l74-72c-60-12-96-223-96-223l-52 25c17 70 17 96-4 117-21 20-47 20-117 1l-26 51s210 41 221 101M4968 402l92 48c-7-61 182-161 182-161l-39-41c-61 38-86 46-112 32-27-14-34-38-37-110l-57-10s26 213-29 242M5065 459l-18 102c56-25 209 124 209 124l27-50c-55-46-70-67-65-97 5-29 26-44 94-69l-9-57s-194 90-238 47" style="fill:#d4d6d3;fill-opacity:1;fill-rule:nonzero;stroke:none" transform="matrix(.13333 0 0 -.13333 0 552)"/>
  <path d="M5072 483a96 96 0 1 0-190 28 96 96 0 0 0 190-28" style="fill:#d4d6d3;fill-opacity:1;fill-rule:nonzero;stroke:none" transform="matrix(.13333 0 0 -.13333 0 552)"/>
  <path d="M5917 1464c35-9 102-103 105-122 3-18 8-138-6-154s-63-53-99-49-266 112-280 129-13 107 10 133c23 25 226 76 270 63" style="fill:#fff;fill-opacity:1;fill-rule:nonzero;stroke:none" transform="matrix(.13333 0 0 -.13333 0 552)"/>
  <path d="M5637 1268c14-17 244-125 280-129 28-3 63 18 84 35-29-13-55-17-74-12-20 5-240 99-259 122-18 22-8 96-4 109 5 12 189 69 189 69-83-7-190-44-206-61-23-26-24-116-10-133" style="fill:#e7e8e5;fill-opacity:1;fill-rule:nonzero;stroke:none" transform="matrix(.13333 0 0 -.13333 0 552)"/>
  <path d="M853 1222c-25-57-251-186-339-214-55-18-249-59-262-50-12 8 63 153 107 192s276 156 351 164c74 7 168-33 143-92" style="fill:#fff;fill-opacity:1;fill-rule:nonzero;stroke:none" transform="matrix(.13333 0 0 -.13333 0 552)"/>
  <path d="M252 957c13-8 207 33 262 51 88 28 314 157 339 214 25 58-69 99-143 92l-18-3c73-15 95-67 57-104-37-37-161-128-212-151-50-22-238-81-256-70-8 4-11 15-12 27-14-30-21-52-17-56" style="fill:#e7e8e5;fill-opacity:1;fill-rule:nonzero;stroke:none" transform="matrix(.13333 0 0 -.13333 0 552)"/>
  <path d="M707 330a4464 4464 0 0 1 0 0" style="fill:#e0e1de;fill-opacity:1;fill-rule:nonzero;stroke:none" transform="matrix(.13333 0 0 -.13333 0 552)"/>
  <path d="M456 349" style="fill:#f68185;fill-opacity:1;fill-rule:nonzero;stroke:none" transform="matrix(.13333 0 0 -.13333 0 552)"/>
  <path d="M304 370" style="fill:#142228;fill-opacity:1;fill-rule:nonzero;stroke:none" transform="matrix(.13333 0 0 -.13333 0 552)"/>
  <path d="M732 331c1 1 2 7 2 17 0-10-1-16-2-17" style="fill:#e0e1de;fill-opacity:1;fill-rule:nonzero;stroke:none" transform="matrix(.13333 0 0 -.13333 0 552)"/>
  <path d="M716 330h-9a4464 4464 0 0 0-394 36l-9 4-24 14c-51 35-130 107-130 107l-1 2a1467 1467 0 0 1 462-76l124 1-1-70c0-10-1-16-2-17h-1l-15-1" style="fill:#f4ac12;fill-opacity:1;fill-rule:nonzero;stroke:none" transform="matrix(.13333 0 0 -.13333 0 552)"/>
  <path d="M1822 304c142 1 2610 20 2622 30v3-3c-12-10-2480-29-2622-30m-6 0c-3 1-3 24-5 60 2-36 2-59 5-60" style="fill:#e0e1de;fill-opacity:1;fill-rule:nonzero;stroke:none" transform="matrix(.13333 0 0 -.13333 0 552)"/>
  <path d="M1811 364c0 21-2 45-4 73 2-28 4-52 4-73M4445 392" style="fill:#6b4d16;fill-opacity:1;fill-rule:nonzero;stroke:none" transform="matrix(.13333 0 0 -.13333 0 552)"/>
  <path d="M1816 304c-3 1-3 24-5 60 0 21-2 45-4 73 619 13 1378 31 2072 47v-10 10l569 14c-3-42-3-78-3-106l-1-55v-3c-12-10-2480-29-2622-30h-6" style="fill:#f4ac12;fill-opacity:1;fill-rule:nonzero;stroke:none" transform="matrix(.13333 0 0 -.13333 0 552)"/>
  <path d="M6152 604c2 7-3 21-6 29 3-8 8-22 6-29" style="fill:#e0e1de;fill-opacity:1;fill-rule:nonzero;stroke:none" transform="matrix(.13333 0 0 -.13333 0 552)"/>
  <path d="m6145 634-1 3 1-3" style="fill:#cccdcb;fill-opacity:1;fill-rule:nonzero;stroke:none" transform="matrix(.13333 0 0 -.13333 0 552)"/>
  <path d="m5687 433 11 2-11-2m43 5 9 1-9-1" style="fill:#e0e1de;fill-opacity:1;fill-rule:nonzero;stroke:none" transform="matrix(.13333 0 0 -.13333 0 552)"/>
  <path d="m6146 633-1 1 1-1" style="fill:#bbbdbb;fill-opacity:1;fill-rule:nonzero;stroke:none" transform="matrix(.13333 0 0 -.13333 0 552)"/>
  <path d="m5687 433-1 18 12-16-11-2m43 5 8 4 1-3-9-1m394 114-29 49v1l-6 12 55 23 1-3 1-1c3-8 8-22 6-29a539 539 0 0 0-28-52" style="fill:#f4ac12;fill-opacity:1;fill-rule:nonzero;stroke:none" transform="matrix(.13333 0 0 -.13333 0 552)"/>
  <path d="M2018 442c-4 87-8 174-10 261h7l3-261m-13 341-5 187-2 132c1 9-1 18 3 26 46 82 97 160 149 238l3-3c-51-82-118-191-144-238-3-7-1-15-2-23l3-132 4-187h-9" style="fill:#d59814;fill-opacity:1;fill-rule:nonzero;stroke:none" transform="matrix(.13333 0 0 -.13333 0 552)"/>
  <path d="m2008 703-3 80h9l1-80h-7" style="fill:#cda63e;fill-opacity:1;fill-rule:nonzero;stroke:none" transform="matrix(.13333 0 0 -.13333 0 552)"/>
  <path d="m3879 484 1 120 2 166h8l-6-166-5-120m4 317c2 144 6 297 10 423-1 54-21 106-32 159l-8 35h3c16-53 30-106 42-161 5-18 2-46 2-65l-9-391h-8m-35 636-17 67 20-67h-3" style="fill:#d59814;fill-opacity:1;fill-rule:nonzero;stroke:none" transform="matrix(.13333 0 0 -.13333 0 552)"/>
  <path d="m3882 770 1 31h8l-1-31h-8" style="fill:#cda63e;fill-opacity:1;fill-rule:nonzero;stroke:none" transform="matrix(.13333 0 0 -.13333 0 552)"/>
  <path d="M3879 474v10-10" style="fill:#bb8817;fill-opacity:1;fill-rule:nonzero;stroke:none" transform="matrix(.13333 0 0 -.13333 0 552)"/>
  <path d="M4336 497c-2 175 38 359 154 495 48 57 107 103 173 137a591 591 0 0 1-292-376c10 31 22 62 37 91a866 866 0 0 1-72-347m367 651c80 35 167 54 254 55 12 40 27 79 29 120-13 89-39 175-61 262h1c24-86 53-172 67-261-2-42-15-82-27-121a718 718 0 0 1-263-55M5808 1078l-4 5 66 65-62-70M849 1267l-1 2c209 34 447 68 651 100 42 14 257 101 303 119-100-44-199-89-300-127-216-36-436-67-653-94" style="fill:#d59814;fill-opacity:1;fill-rule:nonzero;stroke:none" transform="matrix(.13333 0 0 -.13333 0 552)"/>
  <path d="M792 1259" style="fill:#b1b3b1;fill-opacity:1;fill-rule:nonzero;stroke:none" transform="matrix(.13333 0 0 -.13333 0 552)"/>
  <path d="M3584 1167c-15 0-31 1-46 3-22 11-30 37-37 59h1c7-17 16-36 31-48 5-4 10-5 16-5 52 1 105 2 157 7 6 0 13 1 18 3 13 10 21 27 28 42h1c-5-17-12-34-25-47l-11-4c-29-6-59-7-89-9l-44-1M3499 1263c3 20 6 43 23 57a530 530 0 0 0 142 10c13-1 27-2 41-7 13-5 23-15 33-25 7-9 14-18 19-28h-2c-5 9-13 17-21 25-19 20-43 25-69 25h-2a1008 1008 0 0 1-138-6c-15-11-21-33-26-51" style="fill:#d59814;fill-opacity:1;fill-rule:nonzero;stroke:none" transform="matrix(.13333 0 0 -.13333 0 552)"/>
  <path d="m3656 1222-68 1c-29 2-58 0-86 6h-1l-10 3c-17 7-16 16-8 23-12-10-3-24 27-26l45-1c50 0 100 3 149 5 19 1 38 0 55 8 12 7 11 14-2 19-30 9-63 6-94 8l-77 2c-26 0-53-1-79-5a64 64 0 0 1-8-2l8 2c52 7 104 7 156 8l35 1a633 633 0 0 0 59-4l14-7c17-15-1-29-18-35h-1l-8-2c-30-3-59-4-88-4M4747 1292l-29 1c-22 10-32 36-39 58 8-18 18-35 33-47 4-4 8-4 13-4h4c52 2 105 6 156 12l18 4c12 11 19 28 26 43l2 1c-5-18-11-36-24-49l-10-4c-29-7-59-10-89-12-20-1-40-3-61-3M4675 1385c2 20 5 43 21 57 7 4 14 5 20 6a561 561 0 0 0 121 10c14-1 27-1 41-5 14-5 24-15 34-24 8-9 16-18 21-28h-2c-6 9-14 17-22 24a84 84 0 0 1-64 23h-8a945 945 0 0 1-138-11c-14-12-19-34-24-52" style="fill:#d59814;fill-opacity:1;fill-rule:nonzero;stroke:none" transform="matrix(.13333 0 0 -.13333 0 552)"/>
  <path d="M4719 1348c-13 0-27 0-40 3l-11 2c-17 7-16 16-8 23-12-11-2-24 28-25l10-1c61 0 123 8 183 12 19 3 38 2 55 11 12 7 11 14-2 18a208 208 0 0 1-67 5h-29c-51-1-104 0-155-9a64 64 0 0 1-8-2l8 2c51 9 104 11 155 14 20 0 40 3 61 3a167 167 0 0 0 37-4c14-3 24-16 14-28-6-6-12-10-19-12l-2-1-8-2a2966 2966 0 0 0-163-9h-39m-59 28" style="fill:#d59814;fill-opacity:1;fill-rule:nonzero;stroke:none" transform="matrix(.13333 0 0 -.13333 0 552)"/>
  <path d="m159 703 236-20c3 1 10 33 29 34s87-57 98-113c11-55-2-97-37-93s-84 76-84 76-179 10-183 6c-4-3-15-13-22-17s-31-7-31-7l-6 134M2734 2100l-100 21s-888-458-1034-546c0 0 160-18 192-10 33 9 942 535 942 535" style="fill:#17282f;fill-opacity:1;fill-rule:nonzero;stroke:none" transform="matrix(.13333 0 0 -.13333 0 552)"/>
  <path d="m3803 2037-84-485-137-6c-829-35-1236-34-1246-29-10 4 27 175 41 193 15 19 596 308 703 320 79 8 448 14 715 16 4-2 7-5 8-9" style="fill:#fff;fill-opacity:1;fill-rule:nonzero;stroke:none" transform="matrix(.13333 0 0 -.13333 0 552)"/>
  <path d="M4840 1637c-7-26-306-48-896-75 2 94 11 458 15 472 3 6 8 11 12 13 292-3 461-40 548-76 79-34 329-304 321-334" style="fill:#273e47;fill-opacity:1;fill-rule:nonzero;stroke:none" transform="matrix(.13333 0 0 -.13333 0 552)"/>
  <path d="m4216 2035-18 1h3l14-1h1m-29 2-8 1h7l1-1m-8 1a2177 2177 0 0 1-10 1l5-1h5m-29 2a3228 3228 0 0 1-3 0h3m-39 3h-7 7" style="fill:#fbc22b;fill-opacity:1;fill-rule:nonzero;stroke:none" transform="matrix(.13333 0 0 -.13333 0 552)"/>
  <path d="m4536 1594-432 449h7l11-1 12-1 16-1 11-1 18-1a1656 1656 0 0 0 37-3l14-2a391 391 0 0 0 27-3 1495 1495 0 0 0 113-17h2a244 244 0 0 0 13-3l5-1 6-1a1506 1506 0 0 0 13-3l4-1 5-1 5-2 367-381c-49-9-134-17-254-26" style="fill:#3a5159;fill-opacity:1;fill-rule:nonzero;stroke:none" transform="matrix(.13333 0 0 -.13333 0 552)"/>
  <path d="M4288 1579h1-1m-338 227v1l4 140h1l-5-141" style="fill:#fbc22b;fill-opacity:1;fill-rule:nonzero;stroke:none" transform="matrix(.13333 0 0 -.13333 0 552)"/>
  <path d="m4175 1573-225 233 5 141 352-367-18-1h-1l-29-1-67-4-17-1" style="fill:#3a5159;fill-opacity:1;fill-rule:nonzero;stroke:none" transform="matrix(.13333 0 0 -.13333 0 552)"/>
  <path d="M2953 1988" style="fill:#fbc22b;fill-opacity:1;fill-rule:nonzero;stroke:none" transform="matrix(.13333 0 0 -.13333 0 552)"/>
  <path d="M2960 1991" style="fill:#fff;fill-opacity:1;fill-rule:nonzero;stroke:none" transform="matrix(.13333 0 0 -.13333 0 552)"/>
  <path d="m3728 1504-1-4-339-11 15 50 3 11 4 13c19 62 40 127 53 162l2 4 3 8 3 5c1 4 3 6 4 7 17 15 146 0 150-9 13-31 28-169 28-169l17-13 6-4 5-4c12-9 25-20 34-29l3-3 7-8 1-2 1-3 1-1" style="fill:#fabb1e;fill-opacity:1;fill-rule:nonzero;stroke:none" transform="matrix(.13333 0 0 -.13333 0 552)"/>
  <path d="m3403 1539 3 11 4 13c19 62 40 127 53 162l2 4 3 8 3 5c1 4 3 6 4 7 5 4 21 6 40 6 44 0 107-9 110-15 13-31 28-169 28-169l17-13 6-4 5-4a54779 54779 0 0 0-257-11h-21" style="fill:#fddb79;fill-opacity:1;fill-rule:nonzero;stroke:none" transform="matrix(.13333 0 0 -.13333 0 552)"/>
  <path d="M4840 1637c-3-13-83-25-240-38h-3l-28-2-22-2-240-15-19-1-29-1-67-4-17-1-231-11a37411 37411 0 0 0 15 472c3 6 8 11 12 13l133-4 18-1 20-1 37-3a346 346 0 0 0 34-3l17-2a391 391 0 0 0 27-3 1495 1495 0 0 0 120-18l23-5 12-3 11-3c39-9 71-20 96-30 79-34 329-304 321-334m-1048 334-73-419-38-2a54779 54779 0 0 0-257-11h-21l-17-1c-171-7-320-11-448-15h-18l-35-1-17-1-66-1a36885 36885 0 0 1-119-3 14004 14004 0 0 0-296-2h-22a550 550 0 0 0-29 2c-1 0-2 5-1 12v5l1 6v3l1 6a264 264 0 0 0 3 20l6 30 3 16 4 16c8 38 18 72 24 79 3 4 32 21 78 44l26 14 55 28 15 7 13 7 1 1 13 6a6517 6517 0 0 0 375 171l24 9 4 2c45 17 80 29 99 31 72 8 383 13 640 16h75c4-2 7-5 8-9l-11-66m766 34c-137 61-238 70-568 78-334 8-716 12-905-9-189-22-573-243-707-320-135-76-424-243-411-272 8-19 705-13 1421 7l339 11c630 22 1191 54 1202 89 22 64-250 362-371 416" style="fill:#17282f;fill-opacity:1;fill-rule:nonzero;stroke:none" transform="matrix(.13333 0 0 -.13333 0 552)"/>
  <path d="M2373 1338c16 24-21 200-39 212-17 11-216-15-210-128s225-121 249-84" style="fill:#fabb1e;fill-opacity:1;fill-rule:nonzero;stroke:none" transform="matrix(.13333 0 0 -.13333 0 552)"/>
  <path d="M2298 1318c-50 0-110 13-145 45l-3 3a83 83 0 0 0-26 61c0 93 143 125 194 125l16-2c15-10 43-134 43-189 0-11-1-19-4-23-8-12-38-20-75-20" style="fill:#f4ac12;fill-opacity:1;fill-rule:nonzero;stroke:none" transform="matrix(.13333 0 0 -.13333 0 552)"/>
  <path d="M4408 844a562 562 0 0 0 298 295c80 34 167 55 254 56h3l1 3 2 5h10c96 0 191-20 276-63v-18c-85 42-179 62-274 62-92 0-184-19-269-52a601 601 0 0 1-301-288m255 285" style="fill:#fcd361;fill-opacity:1;fill-rule:nonzero;stroke:none" transform="matrix(.13333 0 0 -.13333 0 552)"/>
  <path d="M4371 753a591 591 0 0 0 354 404c78 29 160 45 241 46l-2-5-1-3h-3c-87-1-174-22-254-56a562 562 0 0 1-298-295c-15-29-27-60-37-91" style="fill:#e3be60;fill-opacity:1;fill-rule:nonzero;stroke:none" transform="matrix(.13333 0 0 -.13333 0 552)"/>
  <path d="M666 742a585 585 0 0 0 354 404c81 31 167 46 251 46a579 579 0 0 0 565-399 637 637 0 0 1-239 290c-97 62-210 90-324 90a608 608 0 0 1-607-430M2380 1346c487 35 978 66 1468 91l5-19c-492-29-984-53-1473-72m1476 72-5 19c295 15 590 28 884 39-292-21-585-40-879-58" style="fill:#fcd361;fill-opacity:1;fill-rule:nonzero;stroke:none" transform="matrix(.13333 0 0 -.13333 0 552)"/>
  <path d="m3853 1418-5 19h3l5-19h-3" style="fill:#e3be60;fill-opacity:1;fill-rule:nonzero;stroke:none" transform="matrix(.13333 0 0 -.13333 0 552)"/>
  <path d="m5947 864 194-343c31-70 58-131 68-164v-1c4-12 6-20 5-23v-1c-15-23-561-289-583-292-23-3-33 61-20 88 14 27 177 222 177 222l-190 345 349 169" style="fill:#f26162;fill-opacity:1;fill-rule:nonzero;stroke:none" transform="matrix(.13333 0 0 -.13333 0 552)"/>
  <path d="M5639 42c22 3 560 267 575 290v1c1 3-1 11-5 23v1c-10 33-37 94-68 164 0 0-32 60-46 81l-347-180 40-72s-155-193-168-220-3-91 19-88" style="fill:#e7e8e5;fill-opacity:1;fill-rule:nonzero;stroke:none" transform="matrix(.13333 0 0 -.13333 0 552)"/>
  <path d="M5629 50c23 3 567 284 581 308 6 9-31 90-77 188l-2 3-353-177 3-6s-160-201-173-229c-12-27-1-91 21-87" style="fill:#fabb1e;fill-opacity:1;fill-rule:nonzero;stroke:none" transform="matrix(.13333 0 0 -.13333 0 552)"/>
  <path d="M5625 74c90 50 460 241 554 283v-1a16379 16379 0 0 0-554-282" style="fill:#fff;fill-opacity:1;fill-rule:nonzero;stroke:none" transform="matrix(.13333 0 0 -.13333 0 552)"/>
  <path d="M5752 350c33 25 80 42 121 31 1-1 1-3-1-3-41-7-78-17-117-33-3-1-5 3-3 5M5734 320c33 26 80 43 121 31a571 571 0 0 1-118-36c-3 0-5 4-3 5M5716 291c33 26 80 43 121 31 1 0 1-2-1-3-41-7-78-17-117-32-3-1-5 2-3 4" style="fill:#17282f;fill-opacity:1;fill-rule:nonzero;stroke:none" transform="matrix(.13333 0 0 -.13333 0 552)"/>
  <path d="M6073 442c29 40 91-6 62-46s-92 5-62 46" style="fill:#fff;fill-opacity:1;fill-rule:nonzero;stroke:none" transform="matrix(.13333 0 0 -.13333 0 552)"/>
  <path d="m5681 238 37 49h1l-39-49" style="fill:#e0e1de;fill-opacity:1;fill-rule:nonzero;stroke:none" transform="matrix(.13333 0 0 -.13333 0 552)"/>
  <path d="M5676 102c2 34 4 82 4 136l39 49 32 12-27-172-48-25" style="fill:#f4ac12;fill-opacity:1;fill-rule:nonzero;stroke:none" transform="matrix(.13333 0 0 -.13333 0 552)"/>
  <path d="M5676 99v3l48 25-1-3-47-25M5757 335v1-1" style="fill:#e0e1de;fill-opacity:1;fill-rule:nonzero;stroke:none" transform="matrix(.13333 0 0 -.13333 0 552)"/>
  <path d="m5729 301 15 18 11 4-1-9-25-13m28 34v1-1" style="fill:#f4ac12;fill-opacity:1;fill-rule:nonzero;stroke:none" transform="matrix(.13333 0 0 -.13333 0 552)"/>
  <path d="m5744 319 13 16v1l-2-13a536 536 0 0 1-11-4M5718 287l11 14 24 12-2-14-32-12h-1" style="fill:#142228;fill-opacity:1;fill-rule:nonzero;stroke:none" transform="matrix(.13333 0 0 -.13333 0 552)"/>
  <path d="M5611 65c-8-9 11-40 19-39 9 1 601 309 610 317 9 7-13 41-26 37S5611 65 5611 65" style="fill:#fabb1e;fill-opacity:1;fill-rule:nonzero;stroke:none" transform="matrix(.13333 0 0 -.13333 0 552)"/>
  <path d="M5690 55c-2 5-6 9-10 10h-7l3 34a51994 51994 0 0 0 540 282c11 0 26-22 26-33 0-2 0-4-2-5-7-6-398-211-550-288" style="fill:#976d19;fill-opacity:1;fill-rule:nonzero;stroke:none" transform="matrix(.13333 0 0 -.13333 0 552)"/>
  <path d="m6096 634-391-210s-495 705-505 890c-13 256 205 1067 205 1067l348 3s-141-835-130-977c6-75 473-773 473-773" style="fill:#17282f;fill-opacity:1;fill-rule:nonzero;stroke:none" transform="matrix(.13333 0 0 -.13333 0 552)"/>
  <path d="M5670 505a4501 4501 0 0 0 348 190 6796 6796 0 0 0-348-190M5575 1585a10957 10957 0 0 0 121 731l10 44c1 2 4 2 4-1-22-120-44-240-64-360a13764 13764 0 0 1-66-452c-4-31-9-62-9-93-1-30 4-60 15-88 10-27 25-53 40-78 63-107 345-573 352-586l-1-1c-68 105-278 440-342 549-28 49-61 98-71 155-10 59 3 121 11 180" style="fill:#273e47;fill-opacity:1;fill-rule:nonzero;stroke:none" transform="matrix(.13333 0 0 -.13333 0 552)"/>
  <path d="m5675 634 4-398c-2-76-5-142-10-177-2-13-4-21-6-24h-1c-23-15-631-16-652-9s-2 69 21 87c24 19 256 124 256 124v397h388" style="fill:#f26162;fill-opacity:1;fill-rule:nonzero;stroke:none" transform="matrix(.13333 0 0 -.13333 0 552)"/>
  <path d="m5678 318 1-82c-2-76-5-142-10-177l-6-24h-1c-23-15-631-16-652-9s-2 69 21 87c24 19 256 124 256 124v82l391-1" style="fill:#e7e8e5;fill-opacity:1;fill-rule:nonzero;stroke:none" transform="matrix(.13333 0 0 -.13333 0 552)"/>
  <path d="M5010 27c21-7 634 4 657 19 9 6 12 95 14 203v4l-396-3 1-6s-233-109-256-129c-24-19-42-81-20-88" style="fill:#fabb1e;fill-opacity:1;fill-rule:nonzero;stroke:none" transform="matrix(.13333 0 0 -.13333 0 552)"/>
  <path d="M5016 51c104 4 520 12 623 9v-1a16367 16367 0 0 0-623-8" style="fill:#fff;fill-opacity:1;fill-rule:nonzero;stroke:none" transform="matrix(.13333 0 0 -.13333 0 552)"/>
  <path d="M5253 242c40 8 90 3 121-26a572 572 0 0 1-122 20c-2 1-2 5 1 6M5224 224c40 8 90 3 121-26a572 572 0 0 1-122 20c-2 1-2 5 1 6M5195 205c40 9 90 3 121-25 2-1 0-3-1-3-41 12-78 20-120 23-3 1-3 5 0 5" style="fill:#17282f;fill-opacity:1;fill-rule:nonzero;stroke:none" transform="matrix(.13333 0 0 -.13333 0 552)"/>
  <path d="M5000 49c-11-4-8-41 0-44s676 12 687 15c12 2 7 43-7 45-13 2-680-16-680-16" style="fill:#fabb1e;fill-opacity:1;fill-rule:nonzero;stroke:none" transform="matrix(.13333 0 0 -.13333 0 552)"/>
  <path d="M5016 5a157 157 0 0 0-16 0c-4 2-7 13-7 24 0 9 2 18 7 20a88864 88864 0 0 0 680 16c9-1 14-17 14-30 0-8-2-14-7-15-10-3-568-15-671-15" style="fill:#976d19;fill-opacity:1;fill-rule:nonzero;stroke:none" transform="matrix(.13333 0 0 -.13333 0 552)"/>
  <path d="M5581 182c44 23 80-45 35-68-44-23-79 45-35 68" style="fill:#fff;fill-opacity:1;fill-rule:nonzero;stroke:none" transform="matrix(.13333 0 0 -.13333 0 552)"/>
  <path d="M5409 2382c3-7 128-350 140-356 13-6-277-493-294-719-11-144 11-963 11-963h423s-20 736-30 969c-3 91 291 541 295 821 1 88-63 250-63 250l-482-2" style="fill:#17282f;fill-opacity:1;fill-rule:nonzero;stroke:none" transform="matrix(.13333 0 0 -.13333 0 552)"/>
  <path d="M5657 1320c0 3 3 4 3 1 10-127 12-252 18-378s2-157 8-283c3-71 0-143 2-214h-2c-13 126-29 802-29 873M5255 1302a462 462 0 0 0 35 180c23 59 51 117 77 175a7617 7617 0 0 0 131 271c16 33 34 65 51 98l2-1-82-175-80-176c-26-57-53-115-77-173a501 501 0 0 1-43-178c-4-72-6-145-13-217h-2c-2 65-1 131 1 196M5296 429a3850 3850 0 0 0 370-1 5926 5926 0 0 0-370 1" style="fill:#273e47;fill-opacity:1;fill-rule:nonzero;stroke:none" transform="matrix(.13333 0 0 -.13333 0 552)"/>
  <path d="M5490 2045c45-10 90-27 133-46 1 0 0-3-1-2-45 14-90 27-134 43-3 1-1 6 2 5M5447 2336c0 1 3 2 3 0 5-50 13-94 22-141 4-22 34-141 71-129 6 2 9 9 9 19 0 11-6 25-9 36a699 699 0 0 0-28 219c7-66 15-132 32-196 8-31 29-77-4-85-33-9-63 69-69 90-18 59-25 125-27 187" style="fill:#273e47;fill-opacity:1;fill-rule:nonzero;stroke:none" transform="matrix(.13333 0 0 -.13333 0 552)"/>
  <path d="m5543 2063 11-24c2-7 5-14 5-21h-2c-5 5-8 12-11 19l-11 22c-2 5 5 9 8 4M5613 1195c-2 60-8 123 11 182 10 28 25 55 39 82a5133 5133 0 0 1 201 434 544 544 0 0 1 28 416 632 632 0 0 0 35-183c1-61-13-119-32-176-20-59-46-117-71-174l-80-176-87-171c-14-28-27-56-32-87-6-31-5-63-4-94a50732 50732 0 0 0 19-761h-2c-9 133-20 575-25 708" style="fill:#273e47;fill-opacity:1;fill-rule:nonzero;stroke:none" transform="matrix(.13333 0 0 -.13333 0 552)"/>
  <path d="M5708 2296h2c5-37 8-75 26-108 16-31 44-50 75-64a560 560 0 0 1 55-23c-35 8-71 16-101 36-33 21-50 54-55 92-3 22-3 45-2 67" style="fill:#273e47;fill-opacity:1;fill-rule:nonzero;stroke:none" transform="matrix(.13333 0 0 -.13333 0 552)"/>
  <path d="M5396 2803c31-254 28-515-21-573-71-82-204-159-313-235-32-23-173 216-137 238 49 29 226 150 230 153 9 7 116 354 130 423 24 122 94 130 111-6" style="fill:#f26162;fill-opacity:1;fill-rule:nonzero;stroke:none" transform="matrix(.13333 0 0 -.13333 0 552)"/>
  <path d="M5100 2021c-26-18-167-118-207-130-40-13-158-40-171-10-12 30 21 40 21 40s-51-3-61 28 43 46 43 46-53 0-61 32c-7 31 49 38 49 38s-49-3-44 26c5 35 96 29 139 45l193 93 99-208" style="fill:#f26162;fill-opacity:1;fill-rule:nonzero;stroke:none" transform="matrix(.13333 0 0 -.13333 0 552)"/>
  <path d="M4708 2064c66-5 96 5 154 36 1 1 2-1 1-2-54-35-89-53-155-37-4 0-3 3 0 3M4720 1995c69 2 102 12 164 40l1-2c-59-32-95-49-164-41-4 0-4 3-1 3M4747 1923c67 6 103 16 160 51 1 1 3-1 1-2-55-42-99-54-161-51-4 0-5 2 0 2" style="fill:#17282f;fill-opacity:1;fill-rule:nonzero;stroke:none" transform="matrix(.13333 0 0 -.13333 0 552)"/>
  <path d="M5000 2254s-83 7-120 2-169-75-155-104c17-38 101-12 141 5 0 0 40-87 104-82s30 179 30 179" style="fill:#f26162;fill-opacity:1;fill-rule:nonzero;stroke:none" transform="matrix(.13333 0 0 -.13333 0 552)"/>
  <path d="M4733 2143c41-23 91 4 131 18 3 1 5-1 5-3 19-36 57-80 99-85v-2c-46-1-87 40-105 80-40-15-92-40-130-8" style="fill:#17282f;fill-opacity:1;fill-rule:nonzero;stroke:none" transform="matrix(.13333 0 0 -.13333 0 552)"/>
  <path d="m4944 2277 173-270s266 171 284 242c17 70 32 366 1 547s-98 115-129 1c-33-117-118-404-122-407l-207-113" style="fill:#fabb1e;fill-opacity:1;fill-rule:nonzero;stroke:none" transform="matrix(.13333 0 0 -.13333 0 552)"/>
  <path d="m5014 2292 2 1c54-73 103-149 149-227l-2-1c-53 73-104 148-149 227" style="fill:#17282f;fill-opacity:1;fill-rule:nonzero;stroke:none" transform="matrix(.13333 0 0 -.13333 0 552)"/>
  <g clip-path="url(#a)" transform="matrix(.13333 0 0 -.13333 0 552)">
    <path d="M5176 2046h168v719h-168Z" style="fill:#f4ac12;fill-opacity:1;fill-rule:nonzero;stroke:none"/>
  </g>
  <path d="m5351 2173 586 102c1 0 20 40 2 81-72 161-297 546-464 595-35 11-119-7-139-49-49-104-49-534-26-683 4-30 40-45 41-46" style="fill:#fabb1e;fill-opacity:1;fill-rule:nonzero;stroke:none" transform="matrix(.13333 0 0 -.13333 0 552)"/>
  <path d="M5376 2822c34 3 71 69 79 115 0 3-13 30-28 63-9 20-19 42-26 64l-122-78s28-40 40-77l2-9 1-2c3-17 21-79 54-76" style="fill:#f26162;fill-opacity:1;fill-rule:nonzero;stroke:none" transform="matrix(.13333 0 0 -.13333 0 552)"/>
  <path d="M5279 2986s28-40 40-77l2-9 1-2 14 4c77 28 66 132 61 159l-118-75M5153 3185s-38-30-21-77c16-47 52-78 57-78s-36 155-36 155" style="fill:#17282f;fill-opacity:1;fill-rule:nonzero;stroke:none" transform="matrix(.13333 0 0 -.13333 0 552)"/>
  <path d="M5349 3233c34-40 67-183 47-226-29-63-105-101-166-59-59 40-98 227-73 269 37 63 143 75 192 16M5407 3019" style="fill:#f26162;fill-opacity:1;fill-rule:nonzero;stroke:none" transform="matrix(.13333 0 0 -.13333 0 552)"/>
  <path d="m5255 3089 1-1c2-9 6-20 16-21-11-1-16 13-17 22" style="fill:#17282f;fill-opacity:1;fill-rule:nonzero;stroke:none" transform="matrix(.13333 0 0 -.13333 0 552)"/>
  <path d="M5261 3101c15 5 24-25 10-30-13-4-23 26-10 30M5200 3072l-1-1c4-9 6-20-2-26 10 4 7 19 3 27" style="fill:#17282f;fill-opacity:1;fill-rule:nonzero;stroke:none" transform="matrix(.13333 0 0 -.13333 0 552)"/>
  <path d="M5189 3080c-16-4-8-34 6-31 15 3 7 34-6 31M5269 3119h-13c-5 1-9 0-13 3-3 2-3 6-2 8 4 6 10 7 16 7s11-2 16-6 2-12-4-12M5172 3091l11 7c5 3 8 4 10 9 1 3 0 7-2 8-6 3-12 1-17-2-6-3-9-7-12-13-2-6 5-11 10-9M5290 3009c-1-3-1-7-4-9s-7-2-11-3c4-2 10-2 14 1 3 3 3 7 2 11h-1" style="fill:#17282f;fill-opacity:1;fill-rule:nonzero;stroke:none" transform="matrix(.13333 0 0 -.13333 0 552)"/>
  <path d="M5270 3033c-3-10-9-17-17-21l-11-4-5-1-2 2-6 20c-2-2-13-12-14-8a502 502 0 0 0-16 100c9-30 12-62 20-92 4 3 10 8 14 9l6-25c13 2 21 8 30 20h1" style="fill:#17282f;fill-opacity:1;fill-rule:nonzero;stroke:none" transform="matrix(.13333 0 0 -.13333 0 552)"/>
  <path d="M5243 3012s9-7 19-8c3-1 7 0 11 2 7 4 5 11 2 16l-5 9s-9-13-27-19" style="fill:#17282f;fill-opacity:1;fill-rule:nonzero;stroke:none" transform="matrix(.13333 0 0 -.13333 0 552)"/>
  <path d="M5262 3004c3-1 7 0 11 2 7 4 5 11 2 16-8-2-15-10-13-18" style="fill:#f578ba;fill-opacity:1;fill-rule:nonzero;stroke:none" transform="matrix(.13333 0 0 -.13333 0 552)"/>
  <path d="M5372 3110c-22-10-44 7-64 40-12 19-21 63-21 63s-49-48-83-56c-35-9-73 10-80 37-6 22 21 64 70 84 34 13 102 5 141-23 0 0 50-6 55-41s7-93-18-104" style="fill:#17282f;fill-opacity:1;fill-rule:nonzero;stroke:none" transform="matrix(.13333 0 0 -.13333 0 552)"/>
  <path d="M5369 3116c-31-18-63 19-71 41-9 24-6 51-9 76-2-32-3-72 17-97 13-16 39-41 64-22l-1 2M5393 3226c-11 19-41 31-62 29 26-1 62-18 64-47 1-23 1-53-8-75h1c7 15 7 31 8 47 1 15 5 33-3 46" style="fill:#17282f;fill-opacity:1;fill-rule:nonzero;stroke:none" transform="matrix(.13333 0 0 -.13333 0 552)"/>
  <path d="M5340 3253c-41 30-115 54-161 25 51 26 115-3 160-27 1-1 2 1 1 2" style="fill:#17282f;fill-opacity:1;fill-rule:nonzero;stroke:none" transform="matrix(.13333 0 0 -.13333 0 552)"/>
  <path d="M5365 3103s13 55 37 52 27-74 7-92c-19-18-36 0-36 0l-8 40" style="fill:#f26162;fill-opacity:1;fill-rule:nonzero;stroke:none" transform="matrix(.13333 0 0 -.13333 0 552)"/>
  <path d="m5402 3135 1-1c-14-13-16-31-16-49 3 8 8 14 18 11v-1c-7-1-12-4-14-11l-2-16c0-2-3-2-3 0-9 20-5 56 16 67" style="fill:#17282f;fill-opacity:1;fill-rule:nonzero;stroke:none" transform="matrix(.13333 0 0 -.13333 0 552)"/>
  <path d="M5545 2916c186-154 355-400 355-544 0-113-105-52-125-37-68 50-210 303-268 466-53 149-8 153 38 115" style="fill:#fabb1e;fill-opacity:1;fill-rule:nonzero;stroke:none" transform="matrix(.13333 0 0 -.13333 0 552)"/>
  <path d="m5722 2360-28 55-29 54-55 110a4863 4863 0 0 0-81 167l-25 56c12-39 27-78 44-115a2737 2737 0 0 1 174-327" style="fill:#17282f;fill-opacity:1;fill-rule:nonzero;stroke:none" transform="matrix(.13333 0 0 -.13333 0 552)"/>
  <path d="m5523 2754-12 19-6 9-7 8c2-7 5-14 9-20s9-12 16-16" style="fill:#17282f;fill-opacity:1;fill-rule:nonzero;stroke:none" transform="matrix(.13333 0 0 -.13333 0 552)"/>
  <path d="M5396 2478c33-9 69 4 89 32s19 66 14 99c-7 50-20 98-14 148 4 42 17 88-2 128l-1 1c-9 36-49 51-83 40-42-13-63-56-72-96-21-87-19-188 3-275 10-35 29-67 66-77" style="fill:#fabb1e;fill-opacity:1;fill-rule:nonzero;stroke:none" transform="matrix(.13333 0 0 -.13333 0 552)"/>
  <path d="m5348 2688-2 2a387 387 0 0 1-7 21l1 19c4 61 9 151 67 188v1c-63-26-70-132-73-188l-1-7c-5 8-11 16-20 18 2 30 7 60 14 88 9 40 30 83 72 96 7 3 15 4 22 4 27 0 54-16 61-44l1-1c5-12 8-24 9-36-8-6-16-13-22-21-3 31-10 60-28 87l-2-1c13-33 19-66 21-99-7-11-13-23-18-35a522 522 0 0 1-21-59l-5-13-3 4-4 5-4-12-7 8c0 32 1 64 4 96 4 36 6 74 19 109a484 484 0 0 1-30-218l-6 6-6 6-7-20-10 8-8 7-7-19" style="fill:#b58418;fill-opacity:1;fill-rule:nonzero;stroke:none" transform="matrix(.13333 0 0 -.13333 0 552)"/>
  <path d="M5461 2815c-2 33-8 66-21 99l2 1c18-27 25-56 28-87l-9-13M5339 2711c-1 4-3 9-6 13l1 7c3 56 10 162 73 188v-1c-58-37-63-127-67-188l-1-19M5393 2702v8c-1 68 0 145 29 208-13-35-15-73-19-109-3-32-4-64-4-96l-2 3-4-14" style="fill:#9f7419;fill-opacity:1;fill-rule:nonzero;stroke:none" transform="matrix(.13333 0 0 -.13333 0 552)"/>
  <path d="M5463 2421c31-13 68-6 92 19 24 26 29 63 28 97 0 50-6 99 6 148 10 41 30 85 16 127v1c-4 37-42 58-77 52-43-8-70-47-85-85-33-84-45-184-35-273 5-36 19-71 55-86" style="fill:#fabb1e;fill-opacity:1;fill-rule:nonzero;stroke:none" transform="matrix(.13333 0 0 -.13333 0 552)"/>
  <path d="m5452 2694-2 18v1l1 4c12 55 34 116 84 138v1c-53-13-78-84-91-139l-2-2-4 7-8-11-4 5-2 4c5 20 11 40 19 60 15 38 42 77 85 85l12 1c31 0 62-21 65-53v-1c4-10 5-21 5-31 0-17-3-33-8-49l-4-8c-1 0-6 12-8 13l-9-13c6 43 7 85-12 123h-2c10-39 10-76 6-114l-6 6h-1l-8-13c-2 0-6 12-7 13-2 0-5-11-7-11l-10 10-8-11c-2 0-8 12-10 12l-3-2 3 11c9 36 17 73 34 105-24-36-37-79-46-122l-7 4c-3 0-6-10-7-11l-7 4-6 4-4-11-4 3-5 4-1-5v-7l-8 8-5-17 2-13" style="fill:#976d19;fill-opacity:1;fill-rule:nonzero;stroke:none" transform="matrix(.13333 0 0 -.13333 0 552)"/>
  <path d="m5581 2724-7 8-1 1c4 38 4 75-6 114h2a198 198 0 0 0 12-123M5444 2717c13 55 38 126 91 139v-1c-50-22-72-83-84-138v4l-1 2-4-4-2-2M5508 2728l-4 3c9 43 22 86 46 122-17-32-25-69-34-105a1159 1159 0 0 1-4-15l-4-5" style="fill:#856018;fill-opacity:1;fill-rule:nonzero;stroke:none" transform="matrix(.13333 0 0 -.13333 0 552)"/>
  <path d="M5125 2738c20-7 95-37 77-59-2-2-15-4-17-6-16-10-11-29 2-40 27-23 68-31 95-55 64-56 88-96 89-96 0-1 4-6 5-3 5 15-16 158-32 216-4 16-13 45-34 48-18 3-17-14-21-26-18 12-31 48-41 66-11 19-22 37-37 54-15 18-48 53-75 45-20-7 6-40-13-48-5-2-17 5-25 6-3 1-53 24-68 2-38-55 62-92 95-104" style="fill:#273e47;fill-opacity:1;fill-rule:nonzero;stroke:none" transform="matrix(.13333 0 0 -.13333 0 552)"/>
  <path d="M5199 2747c-43 21-85 38-132 50 42-7 83-20 120-40a571 571 0 0 1-78 59c51-28 97-64 138-106-26 47-52 90-87 131l1 1c39-40 75-89 95-141 31-34 58-71 80-112-5 32-9 64-17 96 0 1 1 2 2 0 11-33 20-70 20-105 13-26 24-53 32-80v-1c-13 31-28 62-45 90-34 33-85 52-128 67v1c30-7 58-18 85-33 11-6 24-13 35-21-33 54-74 102-121 144" style="fill:#17282f;fill-opacity:1;fill-rule:nonzero;stroke:none" transform="matrix(.13333 0 0 -.13333 0 552)"/>
  <path d="M5546 2211c25 12 147 63 150 68 4 5-61 195-63 211-2 17-12 237-11 240 0 2-2-1-5-4l-5-5-7 15-7-12c-1-1-6 12-8 13l-9-13-7 8c-3 4-7 8-8 7l-8-13c-1-1-6 12-7 13-2 0-5-11-7-11-1-1-9 9-10 10s-7-10-8-11c-1 0-8 12-10 12l-4-6-4-5c-1 0-9 7-11 7-3 1-6-10-7-11s-4 2-7 4l-6 4-4-11-4 3-5 4-1-12-8 8c-1 1-5-17-5-17s34-244 40-271c5-27 56-225 56-225" style="fill:#fabb1e;fill-opacity:1;fill-rule:nonzero;stroke:none" transform="matrix(.13333 0 0 -.13333 0 552)"/>
  <path d="M5546 2211v2c0 17-22 111-32 142a6122 6122 0 0 0-64 352l5 17 8-8v7l1 5 5-4a17 17 0 0 1 4-3l4 11 6-4 7-4c1 1 4 11 7 11 2 0 10-7 11-7l4 5 4 6c2 0 8-12 10-12l8 11 10-10c2 0 5 11 7 11 1-1 5-13 7-13l8 13h1l7-7 7-8 9 13c2-1 7-13 8-13l7 12 7-15 5 5 5 5v-2l11-239c2-15 64-195 64-210l-1-1c-3-5-125-56-150-68" style="fill:#b58418;fill-opacity:1;fill-rule:nonzero;stroke:none" transform="matrix(.13333 0 0 -.13333 0 552)"/>
  <path d="M5450 2713c-1-11 53-324 64-358 11-33 36-141 32-144-5-3-247-30-252-33-4-2-62 278-67 295l-58 183s16-9 19-9c2 1 8 10 10 15s8-9 10-10c3 0 9 13 11 15 2 3 12-8 13-8s4 15 7 16l7-6c3-2 5-5 7-5 3 1 6 17 8 17 1 1 5-2 9-5l8-5c2 0 6 18 8 19l8-7c4-4 7-7 9-7 2 1 5 21 8 21 3-1 13-15 15-14l8 17 7-6 7-6 7 19 8-7 10-8 7 20 6-6 6-6 5 16 9-11 4 12 4-5 3-4 5 13 4-5 4-5 8 11 4-7 4 4 4 4v-10" style="fill:#fabb1e;fill-opacity:1;fill-rule:nonzero;stroke:none" transform="matrix(.13333 0 0 -.13333 0 552)"/>
  <path d="M5294 2178c-4 0-62 278-67 295a4070 4070 0 0 1-58 183l18-9h1c2 1 7 10 10 15l1 1c2 0 7-10 9-11 3 0 9 13 11 15l1 1c3 0 11-9 12-9s4 15 7 16c2 0 4-3 7-6l6-5h1c3 1 6 17 8 17l9-5 8-5c2 0 6 18 8 19 2 0 5-4 8-7l8-7h1c2 1 5 21 8 21 3-1 13-14 14-14h1l8 17 7-6 7-6 7 19 8-7a41 41 0 0 1 10-8l7 20 6-6 6-6 5 16 9-11 4 12 4-5 3-4 5 13 4-5 4-5 8 11 4-7 4 4 4 4 1-2-1-8v-1c0-15 53-324 64-357a1056 1056 0 0 0 32-144c-3-2-143-18-213-27l-39-6" style="fill:#d59814;fill-opacity:1;fill-rule:nonzero;stroke:none" transform="matrix(.13333 0 0 -.13333 0 552)"/>
  <path d="M5882 2316c-53-44-153-44-425-25-38 3-91 274-50 273 51-1 248-16 262-19 120-24 248-199 213-229" style="fill:#f26162;fill-opacity:1;fill-rule:nonzero;stroke:none" transform="matrix(.13333 0 0 -.13333 0 552)"/>
  <path d="m5496 2569 95-314s284 4 298 72c12 62-105 189-191 217-36 12-202 25-202 25" style="fill:#fabb1e;fill-opacity:1;fill-rule:nonzero;stroke:none" transform="matrix(.13333 0 0 -.13333 0 552)"/>
  <path d="m5499 2559-2 11-1-1 85-11c28-3 56-7 83-13a245 245 0 0 0 145-79 223 223 0 0 1-101 77l-42 10a1123 1123 0 0 1-170 17h-1l1-1 3-10M5581 2530l14-47a2151 2151 0 0 1 54-167l11-26h1l-6 24a875 875 0 0 1-22 71l-31 93-19 53c-1 1-2 0-2-1" style="fill:#17282f;fill-opacity:1;fill-rule:nonzero;stroke:none" transform="matrix(.13333 0 0 -.13333 0 552)"/>
  <path d="M5125 2550c-10-27 13-45 13-45s-19-13-23-35c-5-25 32-43 32-43s-16-17-18-41 32-48 32-48-6-24 7-45c21-37 86-39 128-40 41-1 159 33 183 38l11 265s-184 59-232 53c-41-4-121-29-133-59" style="fill:#f26162;fill-opacity:1;fill-rule:nonzero;stroke:none" transform="matrix(.13333 0 0 -.13333 0 552)"/>
  <path d="M5140 2509c43 15 87 17 132 21v-1c-44-4-87-17-132-22v2M5148 2430c10 3 21 3 31 4a992 992 0 0 0 98-1 1547 1547 0 0 1-98-5c-10-1-20-2-31-1v3M5162 2338c9 3 19 2 28 2a2481 2481 0 0 1 90-1l-61-2-30-1c-8 0-19-2-27 1v1M5591 2255c77 9 155 16 230 35 18 6 37 11 53 21 29 23 23 72 19 106-3 19-8 38-14 56 19-43 45-135 0-169-52-31-113-35-171-42-39-4-78-7-117-7M3343 1836c-1-33 15-44 16-61 0 0-75-32-199-28-125 4-197 41-197 41 2 17 19 28 20 60 1 37-24 41-16 97 6 42 38 46 46 128 8 85 41 118 67 137 50 36 97 28 97 28s44 8 92-32c24-20 58-58 60-144 2-82 33-89 36-131 4-56-21-58-22-95" style="fill:#17282f;fill-opacity:1;fill-rule:nonzero;stroke:none" transform="matrix(.13333 0 0 -.13333 0 552)"/>
  <path d="M3009 2027c12 23 12 51 11 77 0 1-2 2-2 0-1-24-1-50-11-72-9-20-26-33-38-50a89 89 0 0 1-16-82c4-11 10-18 15-28 14-27-6-56-21-77 13 16 27 33 29 55 1 11-2 21-7 30-6 10-11 20-14 32-4 23 2 47 16 65 12 17 29 31 38 50M3378 1933c-4 24-16 43-28 62-6 10-11 20-15 31-4 12-6 25-7 38l-6 42c-3 14-8 27-13 40h-1c10-25 14-51 16-78 2-24 6-46 18-67 11-20 26-37 31-61 5-25 6-55-8-78-10-18-31-38-21-62h1c-8 27 16 46 26 67 10 19 10 45 7 66" style="fill:#17282f;fill-opacity:1;fill-rule:nonzero;stroke:none" transform="matrix(.13333 0 0 -.13333 0 552)"/>
  <path d="M3266 1849v-9l-1-4v-2l-1-3c-2-10-7-23-15-38-51-96-121-200-174-266l-137-4h-18l-35-1-17-1-50-1h-16l-13-1h-7l-54-1h-6l-37-1c-3 63 7 147 27 154l4 1 4-1 57-7 2-1c64-9 142-19 153-13 15 9 121 88 234 180 17 14 32 25 46 31 30 15 51 12 54-8v-4M2617 1697c-39 11-83 4-117-12-33-16-42-73-36-86s55-88 89-72c34 15-14 67-16 75s-5 17 2 20c7 2 143-2 143-2l-65 77" style="fill:#f57a76;fill-opacity:1;fill-rule:nonzero;stroke:none" transform="matrix(.13333 0 0 -.13333 0 552)"/>
  <path d="M2611 1699c-2-1-110-6-143-22-34-16-43-73-37-86s55-88 89-72c34 15-14 67-16 75s-5 17 2 20c7 2 143-2 143-2l-38 87" style="fill:#f57a76;fill-opacity:1;fill-rule:nonzero;stroke:none" transform="matrix(.13333 0 0 -.13333 0 552)"/>
  <path d="M2529 1528c2 7-1 16-3 23s-6 14-11 21c-4 6-9 11-12 17s-4 14-4 20c1 6 7 7 12 7h22l24-1 24-2v-2h-20l-24 1h-22l-10-1c-2-2-1-9 0-11 1-8 4-13 9-18l12-17c3-6 5-12 6-19 1-6-1-12-1-18h-2" style="fill:#17282f;fill-opacity:1;fill-rule:nonzero;stroke:none" transform="matrix(.13333 0 0 -.13333 0 552)"/>
  <path d="M2595 1702c-2-1-108 16-144 7-37-9-56-64-53-77 3-14 36-97 72-89 37 8 0 69 0 77-1 8-1 18 6 19s140-29 140-29l-21 92" style="fill:#f57a76;fill-opacity:1;fill-rule:nonzero;stroke:none" transform="matrix(.13333 0 0 -.13333 0 552)"/>
  <path d="M2482 1551c3 6 2 15 1 22-1 8-3 16-7 23-2 7-7 13-8 19-2 7-2 15 0 21s8 5 13 4c7 0 14-2 21-4l24-6 23-7v-1l-20 4-23 5-22 5c-2 0-7 2-10 0-3-1-2-8-2-10-1-8 2-13 5-20l8-19c2-6 4-13 3-19 0-6-3-12-5-18l-1 1" style="fill:#17282f;fill-opacity:1;fill-rule:nonzero;stroke:none" transform="matrix(.13333 0 0 -.13333 0 552)"/>
  <path d="M2513 1515h-62l-14 28-1 4-66 135 51 25 5-12 19-39 1-2 1-1 16-34 19-40 4-8 2-4 4-8 14-30 1-2 1-1 4-9 1-2" style="fill:#17282f;fill-opacity:1;fill-rule:nonzero;stroke:none" transform="matrix(.13333 0 0 -.13333 0 552)"/>
  <path d="M2472 1515h-113v1l36 13 13 4 29 10 6 2 7 3 9 3 1-1 2-7 1-4 9-24" style="fill:#17282f;fill-opacity:1;fill-rule:nonzero;stroke:none" transform="matrix(.13333 0 0 -.13333 0 552)"/>
  <path d="M2400 1515h-41c-4 0 32 26 32 26l4-12 5-14" style="fill:#17282f;fill-opacity:1;fill-rule:nonzero;stroke:none" transform="matrix(.13333 0 0 -.13333 0 552)"/>
  <path d="m2759 1657-31-139h-6l-37-1h-2l-170-2h-97c-5 6-8 13-8 18-1 6 2 11 10 13 6 2 12 2 18 1l7-2a157 157 0 0 0 31-10c11-4 23-8 33-8 6 0 11 1 16 3h1l6 4 2 1c13 9 20 26 21 41v20l-1 3-2 7v2l-3 4-2 2-1 1-5 6-3 3-3 4-7 8c-8 9-15 19-14 22 1 17 20 29 43 36a134 134 0 0 0 56 5l1-1c17-3 64-16 100-27l8-2 39-12" style="fill:#f57a76;fill-opacity:1;fill-rule:nonzero;stroke:none" transform="matrix(.13333 0 0 -.13333 0 552)"/>
  <path d="M2474 1535c16-4 35-10 51-3 16 6 22 21 24 38s-1 34-11 48c-10 12-23 20-38 26-18 6-37 8-56 9l1 1c17 0 71 2 98-34 11-15 12-32 11-49-2-16-6-32-21-40-18-10-41-2-60 3l1 1" style="fill:#17282f;fill-opacity:1;fill-rule:nonzero;stroke:none" transform="matrix(.13333 0 0 -.13333 0 552)"/>
  <path d="M3266 1848v-6l-1-6v-2l-1-3v-2l-2-6-3-10-8-21-4-8a775 775 0 0 0-29-53l-14-24c-35-60-79-128-118-180h-11l-137-4h-18l-35-1-17-1-50-1h-16l-13-1h-7l-54-1h-1l-7 151v2l-1 17s206-33 214-31 174 132 242 186c18 14 35 24 49 29l14 3 12-1 2-1 2-1 4-2 2-2 4-6 1-4 1-5v-5" style="fill:#33535f;fill-opacity:1;fill-rule:nonzero;stroke:none" transform="matrix(.13333 0 0 -.13333 0 552)"/>
  <path d="M2725 1550v-5h374l4 5zm-2 48v-5h409l4 5zm-2 48v-5h443l3 5zm263 48-7-5h217l3 5zm62 48-6-5h182l3 5zm62 48-7-5h146l3 5zm158 48-1-2v-3h-103l7 5h97" style="fill:#273e47;fill-opacity:1;fill-rule:nonzero;stroke:none" transform="matrix(.13333 0 0 -.13333 0 552)"/>
  <path d="M2789 1519h-7v2c-2 32-4 65-4 97l-1 46v10h1l1-11 7-87 3-57" style="fill:#17282f;fill-opacity:1;fill-rule:nonzero;stroke:none" transform="matrix(.13333 0 0 -.13333 0 552)"/>
  <path d="M3266 1848v-6l-1-6v-2l-1-3v-2l-2-6-3-10-8-21-4-8a775 775 0 0 0-29-53l-14-24c-35-60-79-128-118-180h-11l-137-4h-18l-35-1-17-1h-17a37660 37660 0 0 0 388 336l14 3 11-1h1v-1l1-5v-5" style="fill:#273e47;fill-opacity:1;fill-rule:nonzero;stroke:none" transform="matrix(.13333 0 0 -.13333 0 552)"/>
  <path d="m3505 1543-81-4-38-1-329-11c-10 20-20 54-6 103 15 48 77 137 116 182 95 109 174 57 199 27 48-56 100-184 139-296" style="fill:#33535f;fill-opacity:1;fill-rule:nonzero;stroke:none" transform="matrix(.13333 0 0 -.13333 0 552)"/>
  <path d="M3503 1550h-455l2-5h454l-1 5zm-18 48h-440v-5h442l-2 5zm-18 48h-410l-2-5h414l-2 5zm-20 48h-365l-3-5h370l-2 5zm-22 48h-312l-3-5h317l-2 5zm-25 48h-251l-4-5h258l-3 5zm-29 43h-184l6 5h174l4-5" style="fill:#273e47;fill-opacity:1;fill-rule:nonzero;stroke:none" transform="matrix(.13333 0 0 -.13333 0 552)"/>
  <path d="M3293 1825c-3-10-54-70-99-65-15 2-9 82-9 82v6l-13 84 102 55 14 7 4-52 1-4v-5l1-13 1-10v-10c1-35-1-71-2-75" style="fill:#f57a76;fill-opacity:1;fill-rule:nonzero;stroke:none" transform="matrix(.13333 0 0 -.13333 0 552)"/>
  <path d="M3295 1861c-29-2-78 4-119 44l-4 27 102 55 14 7 4-52 1-4v-5l1-13 1-10v-49" style="fill:#17282f;fill-opacity:1;fill-rule:nonzero;stroke:none" transform="matrix(.13333 0 0 -.13333 0 552)"/>
  <path d="M3346 2095c54-139-24-187-54-198-27-11-121-43-189 90-67 133-20 202 42 229 61 28 148 19 201-121" style="fill:#f57a76;fill-opacity:1;fill-rule:nonzero;stroke:none" transform="matrix(.13333 0 0 -.13333 0 552)"/>
  <path d="m3317 2112-10-2c-4 0-7-1-11 1-2 1-3 4-2 6 2 5 7 7 11 7 6 1 10 1 14-2 5-2 3-9-2-10M3219 2082l9 5c3 2 6 3 8 7 0 2-1 5-3 6-4 3-9 1-13-1-4-3-7-6-9-11-2-4 4-8 8-6M3256 2051l-1-1c4-9 7-21 0-27v-1c10 6 6 21 1 29" style="fill:#17282f;fill-opacity:1;fill-rule:nonzero;stroke:none" transform="matrix(.13333 0 0 -.13333 0 552)"/>
  <path d="M3243 2058c-15-5-5-36 10-32 14 5 3 36-10 32" style="fill:#17282f;fill-opacity:1;fill-rule:nonzero;stroke:none" transform="matrix(.13333 0 0 -.13333 0 552)"/>
  <path d="M3238 2054c-2-3-4-7-7-8-4-2-8 0-11 3l-1-1c2-6 7-11 13-10s9 8 8 15c0 1-1 2-2 1M3308 2071h1c3-10 8-21 18-21v-1c-11-2-18 13-19 22" style="fill:#17282f;fill-opacity:1;fill-rule:nonzero;stroke:none" transform="matrix(.13333 0 0 -.13333 0 552)"/>
  <path d="M3314 2084c15 7 26-24 12-30s-25 25-12 30" style="fill:#17282f;fill-opacity:1;fill-rule:nonzero;stroke:none" transform="matrix(.13333 0 0 -.13333 0 552)"/>
  <path d="M3321 2085c3-1 6-3 9-2 4 1 5 5 6 9 3-6 3-13-2-16s-10 1-14 6c-1 1 0 3 1 3M3281 1972c3-2 7-4 10-4 4 1 7 4 10 6h1c-2-5-7-9-11-9-5-1-8 2-10 6v1M3309 2021l10-21-4-2c-12-6-25-7-36 1l1 1c11-3 22-2 32 2l-12 23c4 2 12 2 17 2-14 29-32 55-46 84 0 1 1 2 2 1 21-26 38-59 53-88 2-4-14-4-17-3" style="fill:#17282f;fill-opacity:1;fill-rule:nonzero;stroke:none" transform="matrix(.13333 0 0 -.13333 0 552)"/>
  <path d="M3313 2001s-3-12-10-19l-10-5c-9-1-12 6-13 12l-1 11s16-6 34 1" style="fill:#17282f;fill-opacity:1;fill-rule:nonzero;stroke:none" transform="matrix(.13333 0 0 -.13333 0 552)"/>
  <path d="m3303 1982-10-5c-9-1-12 6-13 12 8 3 19 1 23-7" style="fill:#f578ba;fill-opacity:1;fill-rule:nonzero;stroke:none" transform="matrix(.13333 0 0 -.13333 0 552)"/>
  <path d="M3112 1971c27 25 18 59 18 59 34 29 45 66 46 70v-38c85 45 91 124 91 124 39-21 51-37 58-46 0 0-17 56-57 85-50 34-95 10-95 10s-77-1-113-78c-39-83 52-186 52-186" style="fill:#17282f;fill-opacity:1;fill-rule:nonzero;stroke:none" transform="matrix(.13333 0 0 -.13333 0 552)"/>
  <path d="M3240 2098c-12-12-26-23-41-31a149 149 0 0 1 65 95c2 12 4 26 1 38h1c3-12 6-24 4-38a105 105 0 0 0-30-64" style="fill:#17282f;fill-opacity:1;fill-rule:nonzero;stroke:none" transform="matrix(.13333 0 0 -.13333 0 552)"/>
  <path d="M3118 1939a31 31 0 0 1 14 2c4 1 6 3 8 5l4 5c3 5 3 10 3 10l-19 36s-44 36-61 19 25-75 51-77" style="fill:#f57a76;fill-opacity:1;fill-rule:nonzero;stroke:none" transform="matrix(.13333 0 0 -.13333 0 552)"/>
  <path d="M3080 1999c18-2 32-15 42-30-6 5-14 7-21-2h1c6 3 12 3 18-1l12-11c1-1 3 0 2 2-6 22-31 47-54 42" style="fill:#17282f;fill-opacity:1;fill-rule:nonzero;stroke:none" transform="matrix(.13333 0 0 -.13333 0 552)"/>
  <path d="M3380 1824c81-85 280-408 219-469-62-60-422 23-519 67-29 14 95 197 128 192 28-5 172-60 176-52 5 9-19 78-55 202-41 143 15 97 51 60" style="fill:#f57a76;fill-opacity:1;fill-rule:nonzero;stroke:none" transform="matrix(.13333 0 0 -.13333 0 552)"/>
  <path d="M3271 1556s-62 66-126 105c-44 28-147 76-285 3-32-17-67-65-3-56 45 7 72 24 99 23 0 0-37-66-18-98 8-14 32-53 54-80 0 0 8 3 16 9 0 0 20-28 72-40l191 134" style="fill:#f57a76;fill-opacity:1;fill-rule:nonzero;stroke:none" transform="matrix(.13333 0 0 -.13333 0 552)"/>
  <path d="M3099 1681c-27-5-84-15-128-40-48-28-134-94-113-130 15-26 50-3 50-3s-30-35-11-56c18-18 44 1 44 1s-15-25 5-39c24-18 50 36 90 39 9 0 63 228 63 228" style="fill:#f57a76;fill-opacity:1;fill-rule:nonzero;stroke:none" transform="matrix(.13333 0 0 -.13333 0 552)"/>
  <path d="M3009 1594c-25-8-76-41-101-85a547 547 0 0 0 101 85M3035 1545a249 249 0 0 1-95-93c38 46 77 79 96 92l-1 1M2956 1632c-24 0-41-6-64-13l-33-8c-11-2-26-5-33 5-4 6-1 14 2 19 3 7 14 17 20 21l-1 1c-5-4-16-13-20-18-3-5-7-10-7-16-1-13 13-19 24-19l19 2 19 5 37 12 37 8v1" style="fill:#17282f;fill-opacity:1;fill-rule:nonzero;stroke:none" transform="matrix(.13333 0 0 -.13333 0 552)"/>
  <path d="M2886 1570c9 11 56 52 70 61-22-10-63-44-74-55-10-12-23-26-28-41-7-23 6-32 11-35 7-3 14-4 21-3s16 6 22 11c-11-6-26-11-38-5-5 2-10 6-12 12s0 13 3 19c5 14 15 25 25 36" style="fill:#17282f;fill-opacity:1;fill-rule:nonzero;stroke:none" transform="matrix(.13333 0 0 -.13333 0 552)"/>
  <path d="m3251 1605-107-232s431-92 467-16c36 75-134 365-211 450-88 97-99 64-78-24 21-91 61-223 61-223l-132 45" style="fill:#33535f;fill-opacity:1;fill-rule:nonzero;stroke:none" transform="matrix(.13333 0 0 -.13333 0 552)"/>
  <path d="m3216 1359 30-5h363l2 2 1 3zm398 48h-454l-3-6h457v6zm-13 48h-419l-3-6h424l-2 6zm-18 47h-379l-3-5h384l-2 5zm-21 48h-336l-3-5h341l-2 5zm-25 48h-165l1-5h167l-3 5zm-289 0-3-5h41l-15 5zm262 48h-152l1-5h154l-3 5zm-29 48h-137l2-5h139l-4 5zm-31 48h-118l1-5h120l-3 5zm-35 48h-95l1-5h98l-4 5zm-39 43h-63v5h57l6-5" style="fill:#273e47;fill-opacity:1;fill-rule:nonzero;stroke:none" transform="matrix(.13333 0 0 -.13333 0 552)"/>
  <path d="M3515 1500a502 502 0 0 1-131 62l-39 11v-1a1956 1956 0 0 0 133-55l36-18 1 1" style="fill:#17282f;fill-opacity:1;fill-rule:nonzero;stroke:none" transform="matrix(.13333 0 0 -.13333 0 552)"/>
  <path d="m3252 1606 130-41-31 101-16 31 13-20-15 50h1c15-30 59-173 59-173a21701 21701 0 0 0-141 52M3246 1455c12 26 23 52 36 77l22 44 1-1-34-79c-12-26-23-52-36-77l-22-43h-1c10 27 22 53 34 79" style="fill:#17282f;fill-opacity:1;fill-rule:nonzero;stroke:none" transform="matrix(.13333 0 0 -.13333 0 552)"/>
  <path d="m3138 1369 14 24c2 2 3 2 2 0l-9-21 18-3 21-4a2048 2048 0 0 1 294-34 939 939 0 0 1 94 3v-1a709 709 0 0 0-169-3 2040 2040 0 0 0-239 33l-26 6" style="fill:#17282f;fill-opacity:1;fill-rule:nonzero;stroke:none" transform="matrix(.13333 0 0 -.13333 0 552)"/>
  <path d="m2097 3370-1-1-267-287-260 295a353 353 0 1 0 528-7" style="fill:#33535f;fill-opacity:1;fill-rule:nonzero;stroke:none" transform="matrix(.13333 0 0 -.13333 0 552)"/>
  <path d="M2129 3723a315 315 0 1 0-586-231 315 315 0 0 0 586 231" style="fill:#fff;fill-opacity:1;fill-rule:nonzero;stroke:none" transform="matrix(.13333 0 0 -.13333 0 552)"/>
  <path d="M1974 3665a138 138 0 1 0-276 0 138 138 0 0 0 276 0" style="fill:#33535f;fill-opacity:1;fill-rule:nonzero;stroke:none" transform="matrix(.13333 0 0 -.13333 0 552)"/>
  <path d="M2041 3369a314 314 0 0 0-410 0 220 220 0 0 0 410 0" style="fill:#33535f;fill-opacity:1;fill-rule:nonzero;stroke:none" transform="matrix(.13333 0 0 -.13333 0 552)"/>
  <path d="M3508 2615h-1l-267-288-260 296a353 353 0 1 0 528-8" style="fill:#fabb1e;fill-opacity:1;fill-rule:nonzero;stroke:none" transform="matrix(.13333 0 0 -.13333 0 552)"/>
  <path d="M3540 2968a315 315 0 1 0-586-231 315 315 0 0 0 586 231" style="fill:#fff;fill-opacity:1;fill-rule:nonzero;stroke:none" transform="matrix(.13333 0 0 -.13333 0 552)"/>
  <path d="M3385 2911a138 138 0 1 0-276 0 138 138 0 0 0 276 0" style="fill:#fabb1e;fill-opacity:1;fill-rule:nonzero;stroke:none" transform="matrix(.13333 0 0 -.13333 0 552)"/>
  <path d="M3452 2614a314 314 0 0 0-410 0 220 220 0 0 0 410 0" style="fill:#fabb1e;fill-opacity:1;fill-rule:nonzero;stroke:none" transform="matrix(.13333 0 0 -.13333 0 552)"/>
  <path d="m5857 3370-1-1-267-287-261 295a353 353 0 1 0 529-7" style="fill:#17282f;fill-opacity:1;fill-rule:nonzero;stroke:none" transform="matrix(.13333 0 0 -.13333 0 552)"/>
  <path d="M5888 3723a315 315 0 1 0-585-231 315 315 0 0 0 585 231" style="fill:#fff;fill-opacity:1;fill-rule:nonzero;stroke:none" transform="matrix(.13333 0 0 -.13333 0 552)"/>
  <path d="M5734 3665a138 138 0 1 0-276 0 138 138 0 0 0 276 0" style="fill:#17282f;fill-opacity:1;fill-rule:nonzero;stroke:none" transform="matrix(.13333 0 0 -.13333 0 552)"/>
  <path d="M5801 3369a312 312 0 0 0-410 0 220 220 0 0 0 410 0" style="fill:#17282f;fill-opacity:1;fill-rule:nonzero;stroke:none" transform="matrix(.13333 0 0 -.13333 0 552)"/>
</svg>
